<svg xmlns="http://www.w3.org/2000/svg" xmlns:xlink="http://www.w3.org/1999/xlink" width="1105" height="651" viewbox="0 0 1105 651"><path transform="translate(-160.67997115297115 333.66305708187855) scale(1) translate(407.8894538100127 -21.451264861358908) rotate(52.06088479226833)" d="M 32 0 L 276.31907886360494 0" fill="none" stroke="#A5ABB6" stroke-width="1"></path><polygon transform="translate(-160.67997115297115 333.66305708187855) scale(1) translate(407.8894538100127 -21.451264861358908) rotate(52.06088479226833) translate(285.76907886360493 0) rotate(0)" points="-9.45,0 -10.5,3.5 0,0 -10.5,-3.5" fill="undefined" stroke="none" stroke-width="1"></polygon><rect transform="translate(-160.67997115297115 333.66305708187855) scale(1) translate(502.6704008762425 100.12889664147016) rotate(0) translate(0 -7) translate(0 0) translate(-31.7265625 0)" x="0" y="0" width="63.453125" height="14" rx="2" ry="2" fill="#ffffff" stroke="none"></rect><text xml:space="preserve" transform="translate(-160.67997115297115 333.66305708187855) scale(1) translate(502.6704008762425 100.12889664147016) rotate(0) translate(0 -7) translate(0 0) translate(-31.7265625 0)" x="2" y="9.78564453125" font-family="sans-serif" font-size="10" font-weight="normal" text-anchor="left" fill="#000000">HAS_CRAFT</text><path transform="translate(-160.67997115297115 333.66305708187855) scale(1) translate(603.2614324372571 229.16193800133854) rotate(-51.25707387105489)" d="M 32 0 L 159.32956134212623 0" fill="none" stroke="#A5ABB6" stroke-width="1"></path><polygon transform="translate(-160.67997115297115 333.66305708187855) scale(1) translate(603.2614324372571 229.16193800133854) rotate(-51.25707387105489) translate(168.77956134212624 0) rotate(0)" points="-9.45,0 -10.5,3.5 0,0 -10.5,-3.5" fill="undefined" stroke="none" stroke-width="1"></polygon><rect transform="translate(-160.67997115297115 333.66305708187855) scale(1) translate(663.1310524503981 154.5470677654082) rotate(0) translate(0 -7) translate(0 0) translate(-51.17236328125 0)" x="0" y="0" width="102.3447265625" height="14" rx="2" ry="2" fill="#ffffff" stroke="none"></rect><text xml:space="preserve" transform="translate(-160.67997115297115 333.66305708187855) scale(1) translate(663.1310524503981 154.5470677654082) rotate(0) translate(0 -7) translate(0 0) translate(-51.17236328125 0)" x="2" y="9.78564453125" font-family="sans-serif" font-size="10" font-weight="normal" text-anchor="left" fill="#000000">FIRST_PROCEDURE</text><path transform="translate(-160.67997115297115 333.66305708187855) scale(1) translate(603.2614324372571 -239.66305708187855) rotate(52.54238426285789)" d="M 32 0 L 165.15736512561534 0" fill="none" stroke="#A5ABB6" stroke-width="1"></path><polygon transform="translate(-160.67997115297115 333.66305708187855) scale(1) translate(603.2614324372571 -239.66305708187855) rotate(52.54238426285789) translate(174.60736512561533 0) rotate(0)" points="-9.45,0 -10.5,3.5 0,0 -10.5,-3.5" fill="undefined" stroke="none" stroke-width="1"></polygon><rect transform="translate(-160.67997115297115 333.66305708187855) scale(1) translate(663.2144619193851 -161.41095863248304) rotate(0) translate(0 -7) translate(0 0) translate(-31.91455078125 0)" x="0" y="0" width="63.8291015625" height="14" rx="2" ry="2" fill="#ffffff" stroke="none"></rect><text xml:space="preserve" transform="translate(-160.67997115297115 333.66305708187855) scale(1) translate(663.2144619193851 -161.41095863248304) rotate(0) translate(0 -7) translate(0 0) translate(-31.91455078125 0)" x="2" y="9.78564453125" font-family="sans-serif" font-size="10" font-weight="normal" text-anchor="left" fill="#000000">FIRST_TASK</text><path transform="translate(-160.67997115297115 333.66305708187855) scale(1) translate(603.2614324372571 229.16193800133854) rotate(180)" d="M 32 0 L 153.9219786272444 0" fill="none" stroke="#A5ABB6" stroke-width="1"></path><polygon transform="translate(-160.67997115297115 333.66305708187855) scale(1) translate(603.2614324372571 229.16193800133854) rotate(180) translate(163.3719786272444 0) rotate(0)" points="-9.45,0 -10.5,3.5 0,0 -10.5,-3.5" fill="undefined" stroke="none" stroke-width="1"></polygon><rect transform="translate(-160.67997115297115 333.66305708187855) scale(1) translate(510.30044312363486 229.16193800133854) rotate(0) translate(0 -7) translate(0 0) translate(-29.78564453125 0)" x="0" y="0" width="59.5712890625" height="14" rx="2" ry="2" fill="#ffffff" stroke="none"></rect><text xml:space="preserve" transform="translate(-160.67997115297115 333.66305708187855) scale(1) translate(510.30044312363486 229.16193800133854) rotate(0) translate(0 -7) translate(0 0) translate(-29.78564453125 0)" x="2" y="9.78564453125" font-family="sans-serif" font-size="10" font-weight="normal" text-anchor="left" fill="#000000">USES_BOM</text><path transform="translate(-160.67997115297115 333.66305708187855) scale(1) translate(832.5242275800742 -239.66305708187855) rotate(122.28238144097398)" d="M 32 0 L 152.54169015462793 0" fill="none" stroke="#A5ABB6" stroke-width="1"></path><polygon transform="translate(-160.67997115297115 333.66305708187855) scale(1) translate(832.5242275800742 -239.66305708187855) rotate(122.28238144097398) translate(161.99169015462792 0) rotate(0)" points="-9.45,0 -10.5,3.5 0,0 -10.5,-3.5" fill="undefined" stroke="none" stroke-width="1"></polygon><rect transform="translate(-160.67997115297115 333.66305708187855) scale(1) translate(783.2430700637232 -161.65487568319276) rotate(0) translate(0 -13) translate(0 0) translate(-28.95068359375 0)" x="0" y="0" width="57.9013671875" height="14" rx="2" ry="2" fill="#ffffff" stroke="none"></rect><text xml:space="preserve" transform="translate(-160.67997115297115 333.66305708187855) scale(1) translate(783.2430700637232 -161.65487568319276) rotate(0) translate(0 -13) translate(0 0) translate(-28.95068359375 0)" x="2" y="9.78564453125" font-family="sans-serif" font-size="10" font-weight="normal" text-anchor="left" fill="#000000">EXECUTES</text><rect transform="translate(-160.67997115297115 333.66305708187855) scale(1) translate(783.2430700637232 -161.65487568319276) rotate(0) translate(0 -13) translate(0 14) translate(-43.4423828125 0)" x="0" y="0" width="86.884765625" height="12" rx="0" ry="0" fill="white" stroke="none"></rect><text xml:space="preserve" transform="translate(-160.67997115297115 333.66305708187855) scale(1) translate(783.2430700637232 -161.65487568319276) rotate(0) translate(0 -13) translate(0 14) translate(-43.4423828125 0)" x="38.349609375" y="8.78564453125" font-family="sans-serif" font-size="10" font-weight="normal" text-anchor="end" fill="#000000">at_time:</text><text xml:space="preserve" transform="translate(-160.67997115297115 333.66305708187855) scale(1) translate(783.2430700637232 -161.65487568319276) rotate(0) translate(0 -13) translate(0 14) translate(-43.4423828125 0)" x="41.1279296875" y="8.78564453125" font-family="sans-serif" font-size="10" font-weight="normal" text-anchor="start" fill="#000000">DateTime</text><path transform="translate(-160.67997115297115 333.66305708187855) scale(1) translate(603.2614324372571 -239.66305708187855) rotate(90)" d="M 32 0 L 427.37499508321713 0" fill="none" stroke="#A5ABB6" stroke-width="1"></path><polygon transform="translate(-160.67997115297115 333.66305708187855) scale(1) translate(603.2614324372571 -239.66305708187855) rotate(90) translate(436.8249950832171 0) rotate(0)" points="-9.45,0 -10.5,3.5 0,0 -10.5,-3.5" fill="undefined" stroke="none" stroke-width="1"></polygon><rect transform="translate(-160.67997115297115 333.66305708187855) scale(1) translate(603.2614324372571 -9.975559540269984) rotate(0) translate(0 -7) translate(0 0) translate(-35.0615234375 0)" x="0" y="0" width="70.123046875" height="14" rx="2" ry="2" fill="#ffffff" stroke="none"></rect><text xml:space="preserve" transform="translate(-160.67997115297115 333.66305708187855) scale(1) translate(603.2614324372571 -9.975559540269984) rotate(0) translate(0 -7) translate(0 0) translate(-35.0615234375 0)" x="2" y="9.78564453125" font-family="sans-serif" font-size="10" font-weight="normal" text-anchor="left" fill="#000000">USES_CRAFT</text><path transform="translate(-160.67997115297115 333.66305708187855) scale(1) translate(603.2614324372571 -239.66305708187855) rotate(131.8390997489119)" d="M 32 0 L 251.44348967980778 0" fill="none" stroke="#A5ABB6" stroke-width="1"></path><polygon transform="translate(-160.67997115297115 333.66305708187855) scale(1) translate(603.2614324372571 -239.66305708187855) rotate(131.8390997489119) translate(260.8934896798078 0) rotate(0)" points="-9.45,0 -10.5,3.5 0,0 -10.5,-3.5" fill="undefined" stroke="none" stroke-width="1"></polygon><rect transform="translate(-160.67997115297115 333.66305708187855) scale(1) translate(508.72721204831436 -134.07738506184722) rotate(0) translate(0 -13) translate(0 0) translate(-39.783203125 0)" x="0" y="0" width="79.56640625" height="14" rx="2" ry="2" fill="#ffffff" stroke="none"></rect><text xml:space="preserve" transform="translate(-160.67997115297115 333.66305708187855) scale(1) translate(508.72721204831436 -134.07738506184722) rotate(0) translate(0 -13) translate(0 0) translate(-39.783203125 0)" x="2" y="9.78564453125" font-family="sans-serif" font-size="10" font-weight="normal" text-anchor="left" fill="#000000">HAS_PRODUCT</text><rect transform="translate(-160.67997115297115 333.66305708187855) scale(1) translate(508.72721204831436 -134.07738506184722) rotate(0) translate(0 -13) translate(0 14) translate(-37.80029296875 0)" x="0" y="0" width="75.6005859375" height="12" rx="0" ry="0" fill="white" stroke="none"></rect><text xml:space="preserve" transform="translate(-160.67997115297115 333.66305708187855) scale(1) translate(508.72721204831436 -134.07738506184722) rotate(0) translate(0 -13) translate(0 14) translate(-37.80029296875 0)" x="38.9111328125" y="8.78564453125" font-family="sans-serif" font-size="10" font-weight="normal" text-anchor="end" fill="#000000">amount:</text><text xml:space="preserve" transform="translate(-160.67997115297115 333.66305708187855) scale(1) translate(508.72721204831436 -134.07738506184722) rotate(0) translate(0 -13) translate(0 14) translate(-37.80029296875 0)" x="41.689453125" y="8.78564453125" font-family="sans-serif" font-size="10" font-weight="normal" text-anchor="start" fill="#000000">Integer</text><path transform="translate(-160.67997115297115 333.66305708187855) scale(1) translate(728.9147393244618 -75.657417567686) rotate(90)" d="M 32 0 L 106.76897651122472 0" fill="none" stroke="#A5ABB6" stroke-width="1"></path><polygon transform="translate(-160.67997115297115 333.66305708187855) scale(1) translate(728.9147393244618 -75.657417567686) rotate(90) translate(116.21897651122472 0) rotate(0)" points="-9.45,0 -10.5,3.5 0,0 -10.5,-3.5" fill="undefined" stroke="none" stroke-width="1"></polygon><rect transform="translate(-160.67997115297115 333.66305708187855) scale(1) translate(728.9147393244618 -6.272929312073643) rotate(0) translate(0 -7) translate(0 0) translate(-50.3447265625 0)" x="0" y="0" width="100.689453125" height="14" rx="2" ry="2" fill="#ffffff" stroke="none"></rect><text xml:space="preserve" transform="translate(-160.67997115297115 333.66305708187855) scale(1) translate(728.9147393244618 -6.272929312073643) rotate(0) translate(0 -7) translate(0 0) translate(-50.3447265625 0)" x="2" y="9.78564453125" font-family="sans-serif" font-size="10" font-weight="normal" text-anchor="left" fill="#000000">USES_PROCEDURE</text><path transform="translate(-160.67997115297115 333.66305708187855) scale(1) translate(728.9147393244618 72.56155894353873) rotate(0)" d="M 32 0 L 165.7689765112247 0" fill="none" stroke="#A5ABB6" stroke-width="1"></path><polygon transform="translate(-160.67997115297115 333.66305708187855) scale(1) translate(728.9147393244618 72.56155894353873) rotate(0) translate(175.2189765112247 0) rotate(0)" points="-9.45,0 -10.5,3.5 0,0 -10.5,-3.5" fill="undefined" stroke="none" stroke-width="1"></polygon><rect transform="translate(-160.67997115297115 333.66305708187855) scale(1) translate(827.7992275800742 72.56155894353873) rotate(0) translate(0 -7) translate(0 0) translate(-15.3349609375 0)" x="0" y="0" width="30.669921875" height="14" rx="2" ry="2" fill="#ffffff" stroke="none"></rect><text xml:space="preserve" transform="translate(-160.67997115297115 333.66305708187855) scale(1) translate(827.7992275800742 72.56155894353873) rotate(0) translate(0 -7) translate(0 0) translate(-15.3349609375 0)" x="2" y="9.78564453125" font-family="sans-serif" font-size="10" font-weight="normal" text-anchor="left" fill="#000000">NEXT</text><path transform="translate(-160.67997115297115 333.66305708187855) scale(1) translate(407.8894538100127 229.16193800133854) rotate(-159.96997200574975)" d="M 32 0 L 121.35612028021744 0" fill="none" stroke="#A5ABB6" stroke-width="1"></path><polygon transform="translate(-160.67997115297115 333.66305708187855) scale(1) translate(407.8894538100127 229.16193800133854) rotate(-159.96997200574975) translate(130.80612028021744 0) rotate(0)" points="-9.45,0 -10.5,3.5 0,0 -10.5,-3.5" fill="undefined" stroke="none" stroke-width="1"></polygon><rect transform="translate(-160.67997115297115 333.66305708187855) scale(1) translate(335.84940083736296 202.89873799547567) rotate(0) translate(0 -13) translate(0 0) translate(-43.03271484375 0)" x="0" y="0" width="86.0654296875" height="14" rx="2" ry="2" fill="#ffffff" stroke="none"></rect><text xml:space="preserve" transform="translate(-160.67997115297115 333.66305708187855) scale(1) translate(335.84940083736296 202.89873799547567) rotate(0) translate(0 -13) translate(0 0) translate(-43.03271484375 0)" x="2" y="9.78564453125" font-family="sans-serif" font-size="10" font-weight="normal" text-anchor="left" fill="#000000">USES_MATERIAL</text><rect transform="translate(-160.67997115297115 333.66305708187855) scale(1) translate(335.84940083736296 202.89873799547567) rotate(0) translate(0 -13) translate(0 14) translate(-37.80029296875 0)" x="0" y="0" width="75.6005859375" height="12" rx="0" ry="0" fill="white" stroke="none"></rect><text xml:space="preserve" transform="translate(-160.67997115297115 333.66305708187855) scale(1) translate(335.84940083736296 202.89873799547567) rotate(0) translate(0 -13) translate(0 14) translate(-37.80029296875 0)" x="38.9111328125" y="8.78564453125" font-family="sans-serif" font-size="10" font-weight="normal" text-anchor="end" fill="#000000">amount:</text><text xml:space="preserve" transform="translate(-160.67997115297115 333.66305708187855) scale(1) translate(335.84940083736296 202.89873799547567) rotate(0) translate(0 -13) translate(0 14) translate(-37.80029296875 0)" x="41.689453125" y="8.78564453125" font-family="sans-serif" font-size="10" font-weight="normal" text-anchor="start" fill="#000000">Integer</text><path transform="translate(-160.67997115297115 333.66305708187855) scale(1) translate(407.8894538100127 229.16193800133854) rotate(159.96997200574975)" d="M 32 0 L 121.35612028021744 0" fill="none" stroke="#A5ABB6" stroke-width="1"></path><polygon transform="translate(-160.67997115297115 333.66305708187855) scale(1) translate(407.8894538100127 229.16193800133854) rotate(159.96997200574975) translate(130.80612028021744 0) rotate(0)" points="-9.45,0 -10.5,3.5 0,0 -10.5,-3.5" fill="undefined" stroke="none" stroke-width="1"></polygon><rect transform="translate(-160.67997115297115 333.66305708187855) scale(1) translate(335.84940083736296 255.4251380072014) rotate(0) translate(0 -13) translate(0 0) translate(-43.03271484375 0)" x="0" y="0" width="86.0654296875" height="14" rx="2" ry="2" fill="#ffffff" stroke="none"></rect><text xml:space="preserve" transform="translate(-160.67997115297115 333.66305708187855) scale(1) translate(335.84940083736296 255.4251380072014) rotate(0) translate(0 -13) translate(0 0) translate(-43.03271484375 0)" x="2" y="9.78564453125" font-family="sans-serif" font-size="10" font-weight="normal" text-anchor="left" fill="#000000">USES_MATERIAL</text><rect transform="translate(-160.67997115297115 333.66305708187855) scale(1) translate(335.84940083736296 255.4251380072014) rotate(0) translate(0 -13) translate(0 14) translate(-37.80029296875 0)" x="0" y="0" width="75.6005859375" height="12" rx="0" ry="0" fill="white" stroke="none"></rect><text xml:space="preserve" transform="translate(-160.67997115297115 333.66305708187855) scale(1) translate(335.84940083736296 255.4251380072014) rotate(0) translate(0 -13) translate(0 14) translate(-37.80029296875 0)" x="38.9111328125" y="8.78564453125" font-family="sans-serif" font-size="10" font-weight="normal" text-anchor="end" fill="#000000">amount:</text><text xml:space="preserve" transform="translate(-160.67997115297115 333.66305708187855) scale(1) translate(335.84940083736296 255.4251380072014) rotate(0) translate(0 -13) translate(0 14) translate(-37.80029296875 0)" x="41.689453125" y="8.78564453125" font-family="sans-serif" font-size="10" font-weight="normal" text-anchor="start" fill="#000000">Integer</text><path transform="translate(-160.67997115297115 333.66305708187855) scale(1) translate(603.2614324372571 229.16193800133854) rotate(-16.169606288026586)" d="M 32 0 L 520.8864186604351 0" fill="none" stroke="#A5ABB6" stroke-width="1"></path><polygon transform="translate(-160.67997115297115 333.66305708187855) scale(1) translate(603.2614324372571 229.16193800133854) rotate(-16.169606288026586) translate(530.3364186604351 0) rotate(0)" points="-9.45,0 -10.5,3.5 0,0 -10.5,-3.5" fill="undefined" stroke="none" stroke-width="1"></polygon><rect transform="translate(-160.67997115297115 333.66305708187855) scale(1) translate(868.7689760821984 152.17757431350856) rotate(0) translate(0 -7) translate(0 0) translate(-49.23388671875 0)" x="0" y="0" width="98.4677734375" height="14" rx="2" ry="2" fill="#ffffff" stroke="none"></rect><text xml:space="preserve" transform="translate(-160.67997115297115 333.66305708187855) scale(1) translate(868.7689760821984 152.17757431350856) rotate(0) translate(0 -7) translate(0 0) translate(-49.23388671875 0)" x="2" y="9.78564453125" font-family="sans-serif" font-size="10" font-weight="normal" text-anchor="left" fill="#000000">LAST_PROCEDURE</text><path transform="translate(-160.67997115297115 333.66305708187855) scale(1) translate(936.1337158356865 72.56155894353873) rotate(0)" d="M 32 0 L 165.7689765112247 0" fill="none" stroke="#A5ABB6" stroke-width="1"></path><polygon transform="translate(-160.67997115297115 333.66305708187855) scale(1) translate(936.1337158356865 72.56155894353873) rotate(0) translate(175.2189765112247 0) rotate(0)" points="-9.45,0 -10.5,3.5 0,0 -10.5,-3.5" fill="undefined" stroke="none" stroke-width="1"></polygon><rect transform="translate(-160.67997115297115 333.66305708187855) scale(1) translate(1035.018204091299 72.56155894353873) rotate(0) translate(0 -7) translate(0 0) translate(-15.3349609375 0)" x="0" y="0" width="30.669921875" height="14" rx="2" ry="2" fill="#ffffff" stroke="none"></rect><text xml:space="preserve" transform="translate(-160.67997115297115 333.66305708187855) scale(1) translate(1035.018204091299 72.56155894353873) rotate(0) translate(0 -7) translate(0 0) translate(-15.3349609375 0)" x="2" y="9.78564453125" font-family="sans-serif" font-size="10" font-weight="normal" text-anchor="left" fill="#000000">NEXT</text><path transform="translate(-160.67997115297115 333.66305708187855) scale(1) translate(1143.3526923469112 -75.657417567686) rotate(-163.1084140606317)" d="M 32 0 L 522.9934593679484 0" fill="none" stroke="#A5ABB6" stroke-width="1"></path><polygon transform="translate(-160.67997115297115 333.66305708187855) scale(1) translate(1143.3526923469112 -75.657417567686) rotate(-163.1084140606317) translate(532.4434593679484 0) rotate(0)" points="-9.45,0 -10.5,3.5 0,0 -10.5,-3.5" fill="undefined" stroke="none" stroke-width="1"></polygon><rect transform="translate(-160.67997115297115 333.66305708187855) scale(1) translate(877.8282082406529 -156.28733338933347) rotate(0) translate(0 -7) translate(0 0) translate(-29.97607421875 0)" x="0" y="0" width="59.9521484375" height="14" rx="2" ry="2" fill="#ffffff" stroke="none"></rect><text xml:space="preserve" transform="translate(-160.67997115297115 333.66305708187855) scale(1) translate(877.8282082406529 -156.28733338933347) rotate(0) translate(0 -7) translate(0 0) translate(-29.97607421875 0)" x="2" y="9.78564453125" font-family="sans-serif" font-size="10" font-weight="normal" text-anchor="left" fill="#000000">LAST_TASK</text><path transform="translate(-160.67997115297115 333.66305708187855) scale(1) translate(1143.3526923469112 -75.657417567686) rotate(90)" d="M 32 0 L 106.76897651122472 0" fill="none" stroke="#A5ABB6" stroke-width="1"></path><polygon transform="translate(-160.67997115297115 333.66305708187855) scale(1) translate(1143.3526923469112 -75.657417567686) rotate(90) translate(116.21897651122472 0) rotate(0)" points="-9.45,0 -10.5,3.5 0,0 -10.5,-3.5" fill="undefined" stroke="none" stroke-width="1"></polygon><rect transform="translate(-160.67997115297115 333.66305708187855) scale(1) translate(1143.3526923469112 -6.272929312073643) rotate(0) translate(0 -7) translate(0 0) translate(-50.3447265625 0)" x="0" y="0" width="100.689453125" height="14" rx="2" ry="2" fill="#ffffff" stroke="none"></rect><text xml:space="preserve" transform="translate(-160.67997115297115 333.66305708187855) scale(1) translate(1143.3526923469112 -6.272929312073643) rotate(0) translate(0 -7) translate(0 0) translate(-50.3447265625 0)" x="2" y="9.78564453125" font-family="sans-serif" font-size="10" font-weight="normal" text-anchor="left" fill="#000000">USES_PROCEDURE</text><path transform="translate(-160.67997115297115 333.66305708187855) scale(1) translate(728.9147393244618 -75.657417567686) rotate(0)" d="M 32 0 L 165.7689765112247 0" fill="none" stroke="#A5ABB6" stroke-width="1"></path><polygon transform="translate(-160.67997115297115 333.66305708187855) scale(1) translate(728.9147393244618 -75.657417567686) rotate(0) translate(175.2189765112247 0) rotate(0)" points="-9.45,0 -10.5,3.5 0,0 -10.5,-3.5" fill="undefined" stroke="none" stroke-width="1"></polygon><rect transform="translate(-160.67997115297115 333.66305708187855) scale(1) translate(827.7992275800742 -75.657417567686) rotate(0) translate(0 -7) translate(0 0) translate(-15.3349609375 0)" x="0" y="0" width="30.669921875" height="14" rx="2" ry="2" fill="#ffffff" stroke="none"></rect><text xml:space="preserve" transform="translate(-160.67997115297115 333.66305708187855) scale(1) translate(827.7992275800742 -75.657417567686) rotate(0) translate(0 -7) translate(0 0) translate(-15.3349609375 0)" x="2" y="9.78564453125" font-family="sans-serif" font-size="10" font-weight="normal" text-anchor="left" fill="#000000">NEXT</text><path transform="translate(-160.67997115297115 333.66305708187855) scale(1) translate(936.1337158356865 -75.657417567686) rotate(0)" d="M 32 0 L 165.7689765112247 0" fill="none" stroke="#A5ABB6" stroke-width="1"></path><polygon transform="translate(-160.67997115297115 333.66305708187855) scale(1) translate(936.1337158356865 -75.657417567686) rotate(0) translate(175.2189765112247 0) rotate(0)" points="-9.45,0 -10.5,3.5 0,0 -10.5,-3.5" fill="undefined" stroke="none" stroke-width="1"></polygon><rect transform="translate(-160.67997115297115 333.66305708187855) scale(1) translate(1035.018204091299 -75.657417567686) rotate(0) translate(0 -7) translate(0 0) translate(-15.3349609375 0)" x="0" y="0" width="30.669921875" height="14" rx="2" ry="2" fill="#ffffff" stroke="none"></rect><text xml:space="preserve" transform="translate(-160.67997115297115 333.66305708187855) scale(1) translate(1035.018204091299 -75.657417567686) rotate(0) translate(0 -7) translate(0 0) translate(-15.3349609375 0)" x="2" y="9.78564453125" font-family="sans-serif" font-size="10" font-weight="normal" text-anchor="left" fill="#000000">NEXT</text><path transform="translate(-160.67997115297115 333.66305708187855) scale(1) translate(936.1337158356865 -75.657417567686) rotate(90)" d="M 32 0 L 106.76897651122472 0" fill="none" stroke="#A5ABB6" stroke-width="1"></path><polygon transform="translate(-160.67997115297115 333.66305708187855) scale(1) translate(936.1337158356865 -75.657417567686) rotate(90) translate(116.21897651122472 0) rotate(0)" points="-9.45,0 -10.5,3.5 0,0 -10.5,-3.5" fill="undefined" stroke="none" stroke-width="1"></polygon><rect transform="translate(-160.67997115297115 333.66305708187855) scale(1) translate(936.1337158356865 -6.272929312073643) rotate(0) translate(0 -7) translate(0 0) translate(-50.3447265625 0)" x="0" y="0" width="100.689453125" height="14" rx="2" ry="2" fill="#ffffff" stroke="none"></rect><text xml:space="preserve" transform="translate(-160.67997115297115 333.66305708187855) scale(1) translate(936.1337158356865 -6.272929312073643) rotate(0) translate(0 -7) translate(0 0) translate(-50.3447265625 0)" x="2" y="9.78564453125" font-family="sans-serif" font-size="10" font-weight="normal" text-anchor="left" fill="#000000">USES_PROCEDURE</text><path transform="translate(-160.67997115297115 333.66305708187855) scale(1) translate(1143.3526923469112 -239.66305708187855) rotate(90)" d="M 32 0 L 122.55563951419255 0" fill="none" stroke="#A5ABB6" stroke-width="1"></path><polygon transform="translate(-160.67997115297115 333.66305708187855) scale(1) translate(1143.3526923469112 -239.66305708187855) rotate(90) translate(132.00563951419255 0) rotate(0)" points="-9.45,0 -10.5,3.5 0,0 -10.5,-3.5" fill="undefined" stroke="none" stroke-width="1"></polygon><rect transform="translate(-160.67997115297115 333.66305708187855) scale(1) translate(1143.3526923469112 -162.38523732478228) rotate(0) translate(0 -13) translate(0 0) translate(-28.95068359375 0)" x="0" y="0" width="57.9013671875" height="14" rx="2" ry="2" fill="#ffffff" stroke="none"></rect><text xml:space="preserve" transform="translate(-160.67997115297115 333.66305708187855) scale(1) translate(1143.3526923469112 -162.38523732478228) rotate(0) translate(0 -13) translate(0 0) translate(-28.95068359375 0)" x="2" y="9.78564453125" font-family="sans-serif" font-size="10" font-weight="normal" text-anchor="left" fill="#000000">EXECUTES</text><rect transform="translate(-160.67997115297115 333.66305708187855) scale(1) translate(1143.3526923469112 -162.38523732478228) rotate(0) translate(0 -13) translate(0 14) translate(-43.4423828125 0)" x="0" y="0" width="86.884765625" height="12" rx="0" ry="0" fill="white" stroke="none"></rect><text xml:space="preserve" transform="translate(-160.67997115297115 333.66305708187855) scale(1) translate(1143.3526923469112 -162.38523732478228) rotate(0) translate(0 -13) translate(0 14) translate(-43.4423828125 0)" x="38.349609375" y="8.78564453125" font-family="sans-serif" font-size="10" font-weight="normal" text-anchor="end" fill="#000000">at_time:</text><text xml:space="preserve" transform="translate(-160.67997115297115 333.66305708187855) scale(1) translate(1143.3526923469112 -162.38523732478228) rotate(0) translate(0 -13) translate(0 14) translate(-43.4423828125 0)" x="41.1279296875" y="8.78564453125" font-family="sans-serif" font-size="10" font-weight="normal" text-anchor="start" fill="#000000">DateTime</text><path transform="translate(-160.67997115297115 333.66305708187855) scale(1) translate(832.5242275800742 -239.66305708187855) rotate(57.71761855902605)" d="M 32 0 L 152.54169015462787 0" fill="none" stroke="#A5ABB6" stroke-width="1"></path><polygon transform="translate(-160.67997115297115 333.66305708187855) scale(1) translate(832.5242275800742 -239.66305708187855) rotate(57.71761855902605) translate(161.99169015462786 0) rotate(0)" points="-9.45,0 -10.5,3.5 0,0 -10.5,-3.5" fill="undefined" stroke="none" stroke-width="1"></polygon><rect transform="translate(-160.67997115297115 333.66305708187855) scale(1) translate(881.8053850964253 -161.65487568319276) rotate(0) translate(0 -13) translate(0 0) translate(-28.95068359375 0)" x="0" y="0" width="57.9013671875" height="14" rx="2" ry="2" fill="#ffffff" stroke="none"></rect><text xml:space="preserve" transform="translate(-160.67997115297115 333.66305708187855) scale(1) translate(881.8053850964253 -161.65487568319276) rotate(0) translate(0 -13) translate(0 0) translate(-28.95068359375 0)" x="2" y="9.78564453125" font-family="sans-serif" font-size="10" font-weight="normal" text-anchor="left" fill="#000000">EXECUTES</text><rect transform="translate(-160.67997115297115 333.66305708187855) scale(1) translate(881.8053850964253 -161.65487568319276) rotate(0) translate(0 -13) translate(0 14) translate(-43.4423828125 0)" x="0" y="0" width="86.884765625" height="12" rx="0" ry="0" fill="white" stroke="none"></rect><text xml:space="preserve" transform="translate(-160.67997115297115 333.66305708187855) scale(1) translate(881.8053850964253 -161.65487568319276) rotate(0) translate(0 -13) translate(0 14) translate(-43.4423828125 0)" x="38.349609375" y="8.78564453125" font-family="sans-serif" font-size="10" font-weight="normal" text-anchor="end" fill="#000000">at_time:</text><text xml:space="preserve" transform="translate(-160.67997115297115 333.66305708187855) scale(1) translate(881.8053850964253 -161.65487568319276) rotate(0) translate(0 -13) translate(0 14) translate(-43.4423828125 0)" x="41.1279296875" y="8.78564453125" font-family="sans-serif" font-size="10" font-weight="normal" text-anchor="start" fill="#000000">DateTime</text><circle transform="translate(-160.67997115297115 333.66305708187855) scale(1)" cx="407.8894538100127" cy="-21.451264861358908" r="31" fill="#f44e3b" stroke="#4d4d4d" strokewidth="2"></circle><text xml:space="preserve" transform="translate(-160.67997115297115 333.66305708187855) scale(1) translate(407.8894538100127 -21.451264861358908) scale(1) translate(0 0) translate(0 0)" x="0" y="5.5712890625" font-family="sans-serif" font-size="20" font-weight="normal" text-anchor="middle" fill="#ffffff">ABC</text><rect transform="translate(-160.67997115297115 333.66305708187855) scale(1) translate(407.8894538100127 -21.451264861358908) translate(-32 -18.999999999999996) translate(0 0) translate(-49.56640625 0)" x="0" y="0" width="49.56640625" height="14" rx="7" ry="7" fill="#999999" stroke="none"></rect><text xml:space="preserve" transform="translate(-160.67997115297115 333.66305708187855) scale(1) translate(407.8894538100127 -21.451264861358908) translate(-32 -18.999999999999996) translate(0 0) translate(-49.56640625 0)" x="7" y="9.78564453125" font-family="sans-serif" font-size="10" font-weight="normal" text-anchor="undefined" fill="#ffffff">Material</text><rect transform="translate(-160.67997115297115 333.66305708187855) scale(1) translate(407.8894538100127 -21.451264861358908) translate(-32 -18.999999999999996) translate(0 14) translate(-62.2509765625 0)" x="0" y="0" width="62.2509765625" height="24" rx="0" ry="0" fill="white" stroke="none"></rect><text xml:space="preserve" transform="translate(-160.67997115297115 333.66305708187855) scale(1) translate(407.8894538100127 -21.451264861358908) translate(-32 -18.999999999999996) translate(0 14) translate(-62.2509765625 0)" x="30.5712890625" y="8.78564453125" font-family="sans-serif" font-size="10" font-weight="normal" text-anchor="end" fill="#000000">id:</text><text xml:space="preserve" transform="translate(-160.67997115297115 333.66305708187855) scale(1) translate(407.8894538100127 -21.451264861358908) translate(-32 -18.999999999999996) translate(0 14) translate(-62.2509765625 0)" x="33.349609375" y="8.78564453125" font-family="sans-serif" font-size="10" font-weight="normal" text-anchor="start" fill="#000000">ID</text><text xml:space="preserve" transform="translate(-160.67997115297115 333.66305708187855) scale(1) translate(407.8894538100127 -21.451264861358908) translate(-32 -18.999999999999996) translate(0 14) translate(-62.2509765625 0)" x="30.5712890625" y="20.78564453125" font-family="sans-serif" font-size="10" font-weight="normal" text-anchor="end" fill="#000000">name:</text><text xml:space="preserve" transform="translate(-160.67997115297115 333.66305708187855) scale(1) translate(407.8894538100127 -21.451264861358908) translate(-32 -18.999999999999996) translate(0 14) translate(-62.2509765625 0)" x="33.349609375" y="20.78564453125" font-family="sans-serif" font-size="10" font-weight="normal" text-anchor="start" fill="#000000">String</text><circle transform="translate(-160.67997115297115 333.66305708187855) scale(1)" cx="407.8894538100127" cy="229.16193800133854" r="31" fill="#fa28ff" stroke="#4d4d4d" strokewidth="2"></circle><text xml:space="preserve" transform="translate(-160.67997115297115 333.66305708187855) scale(1) translate(407.8894538100127 229.16193800133854) scale(1) translate(0 0) translate(0 0)" x="0" y="5.5712890625" font-family="sans-serif" font-size="20" font-weight="normal" text-anchor="middle" fill="#ffffff">AB</text><rect transform="translate(-160.67997115297115 333.66305708187855) scale(1) translate(407.8894538100127 229.16193800133854) translate(1.959434878635765e-15 -70) translate(0 0) translate(-18.38916015625 0)" x="0" y="0" width="36.7783203125" height="14" rx="7" ry="7" fill="#999999" stroke="none"></rect><text xml:space="preserve" transform="translate(-160.67997115297115 333.66305708187855) scale(1) translate(407.8894538100127 229.16193800133854) translate(1.959434878635765e-15 -70) translate(0 0) translate(-18.38916015625 0)" x="7" y="9.78564453125" font-family="sans-serif" font-size="10" font-weight="normal" text-anchor="undefined" fill="#ffffff">BOM</text><rect transform="translate(-160.67997115297115 333.66305708187855) scale(1) translate(407.8894538100127 229.16193800133854) translate(1.959434878635765e-15 -70) translate(0 14) translate(-31.12548828125 0)" x="0" y="0" width="62.2509765625" height="24" rx="0" ry="0" fill="white" stroke="none"></rect><text xml:space="preserve" transform="translate(-160.67997115297115 333.66305708187855) scale(1) translate(407.8894538100127 229.16193800133854) translate(1.959434878635765e-15 -70) translate(0 14) translate(-31.12548828125 0)" x="30.5712890625" y="8.78564453125" font-family="sans-serif" font-size="10" font-weight="normal" text-anchor="end" fill="#000000">id:</text><text xml:space="preserve" transform="translate(-160.67997115297115 333.66305708187855) scale(1) translate(407.8894538100127 229.16193800133854) translate(1.959434878635765e-15 -70) translate(0 14) translate(-31.12548828125 0)" x="33.349609375" y="8.78564453125" font-family="sans-serif" font-size="10" font-weight="normal" text-anchor="start" fill="#000000">ID</text><text xml:space="preserve" transform="translate(-160.67997115297115 333.66305708187855) scale(1) translate(407.8894538100127 229.16193800133854) translate(1.959434878635765e-15 -70) translate(0 14) translate(-31.12548828125 0)" x="30.5712890625" y="20.78564453125" font-family="sans-serif" font-size="10" font-weight="normal" text-anchor="end" fill="#000000">name:</text><text xml:space="preserve" transform="translate(-160.67997115297115 333.66305708187855) scale(1) translate(407.8894538100127 229.16193800133854) translate(1.959434878635765e-15 -70) translate(0 14) translate(-31.12548828125 0)" x="33.349609375" y="20.78564453125" font-family="sans-serif" font-size="10" font-weight="normal" text-anchor="start" fill="#000000">String</text><circle transform="translate(-160.67997115297115 333.66305708187855) scale(1)" cx="603.2614324372571" cy="229.16193800133854" r="31" fill="#653294" stroke="#4d4d4d" strokewidth="2"></circle><text xml:space="preserve" transform="translate(-160.67997115297115 333.66305708187855) scale(1) translate(603.2614324372571 229.16193800133854) scale(1) translate(0 0) translate(0 0)" x="0" y="5.5712890625" font-family="sans-serif" font-size="20" font-weight="normal" text-anchor="middle" fill="#ffffff">&amp; </text><rect transform="translate(-160.67997115297115 333.66305708187855) scale(1) translate(603.2614324372571 229.16193800133854) translate(1.959434878635765e-15 32) translate(0 0) translate(-17.8349609375 0)" x="0" y="0" width="35.669921875" height="14" rx="7" ry="7" fill="#999999" stroke="none"></rect><text xml:space="preserve" transform="translate(-160.67997115297115 333.66305708187855) scale(1) translate(603.2614324372571 229.16193800133854) translate(1.959434878635765e-15 32) translate(0 0) translate(-17.8349609375 0)" x="7" y="9.78564453125" font-family="sans-serif" font-size="10" font-weight="normal" text-anchor="undefined" fill="#ffffff">Craft</text><rect transform="translate(-160.67997115297115 333.66305708187855) scale(1) translate(603.2614324372571 229.16193800133854) translate(1.959434878635765e-15 32) translate(0 14) translate(-31.12548828125 0)" x="0" y="0" width="62.2509765625" height="24" rx="0" ry="0" fill="white" stroke="none"></rect><text xml:space="preserve" transform="translate(-160.67997115297115 333.66305708187855) scale(1) translate(603.2614324372571 229.16193800133854) translate(1.959434878635765e-15 32) translate(0 14) translate(-31.12548828125 0)" x="30.5712890625" y="8.78564453125" font-family="sans-serif" font-size="10" font-weight="normal" text-anchor="end" fill="#000000">id:</text><text xml:space="preserve" transform="translate(-160.67997115297115 333.66305708187855) scale(1) translate(603.2614324372571 229.16193800133854) translate(1.959434878635765e-15 32) translate(0 14) translate(-31.12548828125 0)" x="33.349609375" y="8.78564453125" font-family="sans-serif" font-size="10" font-weight="normal" text-anchor="start" fill="#000000">ID</text><text xml:space="preserve" transform="translate(-160.67997115297115 333.66305708187855) scale(1) translate(603.2614324372571 229.16193800133854) translate(1.959434878635765e-15 32) translate(0 14) translate(-31.12548828125 0)" x="30.5712890625" y="20.78564453125" font-family="sans-serif" font-size="10" font-weight="normal" text-anchor="end" fill="#000000">name:</text><text xml:space="preserve" transform="translate(-160.67997115297115 333.66305708187855) scale(1) translate(603.2614324372571 229.16193800133854) translate(1.959434878635765e-15 32) translate(0 14) translate(-31.12548828125 0)" x="33.349609375" y="20.78564453125" font-family="sans-serif" font-size="10" font-weight="normal" text-anchor="start" fill="#000000">String</text><circle transform="translate(-160.67997115297115 333.66305708187855) scale(1)" cx="728.9147393244618" cy="72.56155894353873" r="31" fill="#653294" stroke="#4d4d4d" strokewidth="2"></circle><text xml:space="preserve" transform="translate(-160.67997115297115 333.66305708187855) scale(1) translate(728.9147393244618 72.56155894353873) scale(1) translate(0 0) translate(0 0)" x="0" y="5.5712890625" font-family="sans-serif" font-size="20" font-weight="normal" text-anchor="middle" fill="#ffffff">A</text><rect transform="translate(-160.67997115297115 333.66305708187855) scale(1) translate(728.9147393244618 72.56155894353873) translate(-32 -24.999999999999996) translate(0 0) translate(-60.1376953125 0)" x="0" y="0" width="60.1376953125" height="14" rx="7" ry="7" fill="#999999" stroke="none"></rect><text xml:space="preserve" transform="translate(-160.67997115297115 333.66305708187855) scale(1) translate(728.9147393244618 72.56155894353873) translate(-32 -24.999999999999996) translate(0 0) translate(-60.1376953125 0)" x="7" y="9.78564453125" font-family="sans-serif" font-size="10" font-weight="normal" text-anchor="undefined" fill="#ffffff">Procedure</text><rect transform="translate(-160.67997115297115 333.66305708187855) scale(1) translate(728.9147393244618 72.56155894353873) translate(-32 -24.999999999999996) translate(0 14) translate(-66.142578125 0)" x="0" y="0" width="66.142578125" height="36" rx="0" ry="0" fill="white" stroke="none"></rect><text xml:space="preserve" transform="translate(-160.67997115297115 333.66305708187855) scale(1) translate(728.9147393244618 72.56155894353873) translate(-32 -24.999999999999996) translate(0 14) translate(-66.142578125 0)" x="34.462890625" y="8.78564453125" font-family="sans-serif" font-size="10" font-weight="normal" text-anchor="end" fill="#000000">id:</text><text xml:space="preserve" transform="translate(-160.67997115297115 333.66305708187855) scale(1) translate(728.9147393244618 72.56155894353873) translate(-32 -24.999999999999996) translate(0 14) translate(-66.142578125 0)" x="37.2412109375" y="8.78564453125" font-family="sans-serif" font-size="10" font-weight="normal" text-anchor="start" fill="#000000">ID</text><text xml:space="preserve" transform="translate(-160.67997115297115 333.66305708187855) scale(1) translate(728.9147393244618 72.56155894353873) translate(-32 -24.999999999999996) translate(0 14) translate(-66.142578125 0)" x="34.462890625" y="20.78564453125" font-family="sans-serif" font-size="10" font-weight="normal" text-anchor="end" fill="#000000">name:</text><text xml:space="preserve" transform="translate(-160.67997115297115 333.66305708187855) scale(1) translate(728.9147393244618 72.56155894353873) translate(-32 -24.999999999999996) translate(0 14) translate(-66.142578125 0)" x="37.2412109375" y="20.78564453125" font-family="sans-serif" font-size="10" font-weight="normal" text-anchor="start" fill="#000000">String</text><text xml:space="preserve" transform="translate(-160.67997115297115 333.66305708187855) scale(1) translate(728.9147393244618 72.56155894353873) translate(-32 -24.999999999999996) translate(0 14) translate(-66.142578125 0)" x="34.462890625" y="32.78564453125" font-family="sans-serif" font-size="10" font-weight="normal" text-anchor="end" fill="#000000">details:</text><text xml:space="preserve" transform="translate(-160.67997115297115 333.66305708187855) scale(1) translate(728.9147393244618 72.56155894353873) translate(-32 -24.999999999999996) translate(0 14) translate(-66.142578125 0)" x="37.2412109375" y="32.78564453125" font-family="sans-serif" font-size="10" font-weight="normal" text-anchor="start" fill="#000000">List</text><circle transform="translate(-160.67997115297115 333.66305708187855) scale(1)" cx="603.2614324372571" cy="-239.66305708187855" r="31" fill="#68bc00" stroke="#4d4d4d" strokewidth="2"></circle><text xml:space="preserve" transform="translate(-160.67997115297115 333.66305708187855) scale(1) translate(603.2614324372571 -239.66305708187855) scale(0.8359376640625) translate(0 0) translate(0 0)" x="0" y="5.5712890625" font-family="sans-serif" font-size="20" font-weight="normal" text-anchor="middle" fill="#ffffff">abc01</text><rect transform="translate(-160.67997115297115 333.66305708187855) scale(1) translate(603.2614324372571 -239.66305708187855) translate(1.959434878635765e-15 -82) translate(0 0) translate(-31.35791015625 0)" x="0" y="0" width="62.7158203125" height="14" rx="7" ry="7" fill="#999999" stroke="none"></rect><text xml:space="preserve" transform="translate(-160.67997115297115 333.66305708187855) scale(1) translate(603.2614324372571 -239.66305708187855) translate(1.959434878635765e-15 -82) translate(0 0) translate(-31.35791015625 0)" x="7" y="9.78564453125" font-family="sans-serif" font-size="10" font-weight="normal" text-anchor="undefined" fill="#ffffff">WorkOrder</text><rect transform="translate(-160.67997115297115 333.66305708187855) scale(1) translate(603.2614324372571 -239.66305708187855) translate(1.959434878635765e-15 -82) translate(0 14) translate(-59.57275390625 0)" x="0" y="0" width="119.1455078125" height="36" rx="0" ry="0" fill="white" stroke="none"></rect><text xml:space="preserve" transform="translate(-160.67997115297115 333.66305708187855) scale(1) translate(603.2614324372571 -239.66305708187855) translate(1.959434878635765e-15 -82) translate(0 14) translate(-59.57275390625 0)" x="70.6103515625" y="8.78564453125" font-family="sans-serif" font-size="10" font-weight="normal" text-anchor="end" fill="#000000">schedule_date:</text><text xml:space="preserve" transform="translate(-160.67997115297115 333.66305708187855) scale(1) translate(603.2614324372571 -239.66305708187855) translate(1.959434878635765e-15 -82) translate(0 14) translate(-59.57275390625 0)" x="73.388671875" y="8.78564453125" font-family="sans-serif" font-size="10" font-weight="normal" text-anchor="start" fill="#000000">DateTime</text><text xml:space="preserve" transform="translate(-160.67997115297115 333.66305708187855) scale(1) translate(603.2614324372571 -239.66305708187855) translate(1.959434878635765e-15 -82) translate(0 14) translate(-59.57275390625 0)" x="70.6103515625" y="20.78564453125" font-family="sans-serif" font-size="10" font-weight="normal" text-anchor="end" fill="#000000">is_completed:</text><text xml:space="preserve" transform="translate(-160.67997115297115 333.66305708187855) scale(1) translate(603.2614324372571 -239.66305708187855) translate(1.959434878635765e-15 -82) translate(0 14) translate(-59.57275390625 0)" x="73.388671875" y="20.78564453125" font-family="sans-serif" font-size="10" font-weight="normal" text-anchor="start" fill="#000000">Bool</text><text xml:space="preserve" transform="translate(-160.67997115297115 333.66305708187855) scale(1) translate(603.2614324372571 -239.66305708187855) translate(1.959434878635765e-15 -82) translate(0 14) translate(-59.57275390625 0)" x="70.6103515625" y="32.78564453125" font-family="sans-serif" font-size="10" font-weight="normal" text-anchor="end" fill="#000000">id:</text><text xml:space="preserve" transform="translate(-160.67997115297115 333.66305708187855) scale(1) translate(603.2614324372571 -239.66305708187855) translate(1.959434878635765e-15 -82) translate(0 14) translate(-59.57275390625 0)" x="73.388671875" y="32.78564453125" font-family="sans-serif" font-size="10" font-weight="normal" text-anchor="start" fill="#000000">ID</text><circle transform="translate(-160.67997115297115 333.66305708187855) scale(1)" cx="728.9147393244618" cy="-75.657417567686" r="31" fill="#68bc00" stroke="#4d4d4d" strokewidth="2"></circle><text xml:space="preserve" transform="translate(-160.67997115297115 333.66305708187855) scale(1) translate(728.9147393244618 -75.657417567686) scale(1) translate(0 0) translate(0 0)" x="0" y="5.5712890625" font-family="sans-serif" font-size="20" font-weight="normal" text-anchor="middle" fill="#ffffff">a01</text><rect transform="translate(-160.67997115297115 333.66305708187855) scale(1) translate(728.9147393244618 -75.657417567686) translate(-32 -18.999999999999996) translate(0 0) translate(-80.69921875 0)" x="0" y="0" width="80.69921875" height="14" rx="7" ry="7" fill="#999999" stroke="none"></rect><text xml:space="preserve" transform="translate(-160.67997115297115 333.66305708187855) scale(1) translate(728.9147393244618 -75.657417567686) translate(-32 -18.999999999999996) translate(0 0) translate(-80.69921875 0)" x="7" y="9.78564453125" font-family="sans-serif" font-size="10" font-weight="normal" text-anchor="undefined" fill="#ffffff">ProcedureTask</text><rect transform="translate(-160.67997115297115 333.66305708187855) scale(1) translate(728.9147393244618 -75.657417567686) translate(-32 -18.999999999999996) translate(0 14) translate(-90.048828125 0)" x="0" y="0" width="90.048828125" height="24" rx="0" ry="0" fill="white" stroke="none"></rect><text xml:space="preserve" transform="translate(-160.67997115297115 333.66305708187855) scale(1) translate(728.9147393244618 -75.657417567686) translate(-32 -18.999999999999996) translate(0 14) translate(-90.048828125 0)" x="64.4775390625" y="8.78564453125" font-family="sans-serif" font-size="10" font-weight="normal" text-anchor="end" fill="#000000">is_completed:</text><text xml:space="preserve" transform="translate(-160.67997115297115 333.66305708187855) scale(1) translate(728.9147393244618 -75.657417567686) translate(-32 -18.999999999999996) translate(0 14) translate(-90.048828125 0)" x="67.255859375" y="8.78564453125" font-family="sans-serif" font-size="10" font-weight="normal" text-anchor="start" fill="#000000">Bool</text><text xml:space="preserve" transform="translate(-160.67997115297115 333.66305708187855) scale(1) translate(728.9147393244618 -75.657417567686) translate(-32 -18.999999999999996) translate(0 14) translate(-90.048828125 0)" x="64.4775390625" y="20.78564453125" font-family="sans-serif" font-size="10" font-weight="normal" text-anchor="end" fill="#000000">id:</text><text xml:space="preserve" transform="translate(-160.67997115297115 333.66305708187855) scale(1) translate(728.9147393244618 -75.657417567686) translate(-32 -18.999999999999996) translate(0 14) translate(-90.048828125 0)" x="67.255859375" y="20.78564453125" font-family="sans-serif" font-size="10" font-weight="normal" text-anchor="start" fill="#000000"></text><circle transform="translate(-160.67997115297115 333.66305708187855) scale(1)" cx="832.5242275800742" cy="-239.66305708187855" r="31" fill="#4C8EDA" stroke="#4d4d4d" strokewidth="2"></circle><text xml:space="preserve" transform="translate(-160.67997115297115 333.66305708187855) scale(1) translate(832.5242275800742 -239.66305708187855) scale(1) translate(0 0) translate(0 0)" x="0" y="5.5712890625" font-family="sans-serif" font-size="20" font-weight="normal" text-anchor="middle" fill="#ffffff">w1</text><rect transform="translate(-160.67997115297115 333.66305708187855) scale(1) translate(832.5242275800742 -239.66305708187855) translate(1.959434878635765e-15 -94) translate(0 0) translate(-17.556640625 0)" x="0" y="0" width="35.11328125" height="14" rx="7" ry="7" fill="#999999" stroke="none"></rect><text xml:space="preserve" transform="translate(-160.67997115297115 333.66305708187855) scale(1) translate(832.5242275800742 -239.66305708187855) translate(1.959434878635765e-15 -94) translate(0 0) translate(-17.556640625 0)" x="7" y="9.78564453125" font-family="sans-serif" font-size="10" font-weight="normal" text-anchor="undefined" fill="#ffffff">User</text><rect transform="translate(-160.67997115297115 333.66305708187855) scale(1) translate(832.5242275800742 -239.66305708187855) translate(1.959434878635765e-15 -94) translate(0 14) translate(-43.9111328125 0)" x="0" y="0" width="87.822265625" height="48" rx="0" ry="0" fill="white" stroke="none"></rect><text xml:space="preserve" transform="translate(-160.67997115297115 333.66305708187855) scale(1) translate(832.5242275800742 -239.66305708187855) translate(1.959434878635765e-15 -94) translate(0 14) translate(-43.9111328125 0)" x="56.142578125" y="8.78564453125" font-family="sans-serif" font-size="10" font-weight="normal" text-anchor="end" fill="#000000">id:</text><text xml:space="preserve" transform="translate(-160.67997115297115 333.66305708187855) scale(1) translate(832.5242275800742 -239.66305708187855) translate(1.959434878635765e-15 -94) translate(0 14) translate(-43.9111328125 0)" x="58.9208984375" y="8.78564453125" font-family="sans-serif" font-size="10" font-weight="normal" text-anchor="start" fill="#000000">ID</text><text xml:space="preserve" transform="translate(-160.67997115297115 333.66305708187855) scale(1) translate(832.5242275800742 -239.66305708187855) translate(1.959434878635765e-15 -94) translate(0 14) translate(-43.9111328125 0)" x="56.142578125" y="20.78564453125" font-family="sans-serif" font-size="10" font-weight="normal" text-anchor="end" fill="#000000">name:</text><text xml:space="preserve" transform="translate(-160.67997115297115 333.66305708187855) scale(1) translate(832.5242275800742 -239.66305708187855) translate(1.959434878635765e-15 -94) translate(0 14) translate(-43.9111328125 0)" x="58.9208984375" y="20.78564453125" font-family="sans-serif" font-size="10" font-weight="normal" text-anchor="start" fill="#000000">String</text><text xml:space="preserve" transform="translate(-160.67997115297115 333.66305708187855) scale(1) translate(832.5242275800742 -239.66305708187855) translate(1.959434878635765e-15 -94) translate(0 14) translate(-43.9111328125 0)" x="56.142578125" y="32.78564453125" font-family="sans-serif" font-size="10" font-weight="normal" text-anchor="end" fill="#000000">department:</text><text xml:space="preserve" transform="translate(-160.67997115297115 333.66305708187855) scale(1) translate(832.5242275800742 -239.66305708187855) translate(1.959434878635765e-15 -94) translate(0 14) translate(-43.9111328125 0)" x="58.9208984375" y="32.78564453125" font-family="sans-serif" font-size="10" font-weight="normal" text-anchor="start" fill="#000000">String</text><text xml:space="preserve" transform="translate(-160.67997115297115 333.66305708187855) scale(1) translate(832.5242275800742 -239.66305708187855) translate(1.959434878635765e-15 -94) translate(0 14) translate(-43.9111328125 0)" x="56.142578125" y="44.78564453125" font-family="sans-serif" font-size="10" font-weight="normal" text-anchor="end" fill="#000000">role:</text><text xml:space="preserve" transform="translate(-160.67997115297115 333.66305708187855) scale(1) translate(832.5242275800742 -239.66305708187855) translate(1.959434878635765e-15 -94) translate(0 14) translate(-43.9111328125 0)" x="58.9208984375" y="44.78564453125" font-family="sans-serif" font-size="10" font-weight="normal" text-anchor="start" fill="#000000">String</text><circle transform="translate(-160.67997115297115 333.66305708187855) scale(1)" cx="936.1337158356865" cy="72.56155894353873" r="31" fill="#653294" stroke="#4d4d4d" strokewidth="2"></circle><text xml:space="preserve" transform="translate(-160.67997115297115 333.66305708187855) scale(1) translate(936.1337158356865 72.56155894353873) scale(1) translate(0 0) translate(0 0)" x="0" y="5.5712890625" font-family="sans-serif" font-size="20" font-weight="normal" text-anchor="middle" fill="#ffffff">B</text><rect transform="translate(-160.67997115297115 333.66305708187855) scale(1) translate(936.1337158356865 72.56155894353873) translate(1.959434878635765e-15 32) translate(0 0) translate(-30.06884765625 0)" x="0" y="0" width="60.1376953125" height="14" rx="7" ry="7" fill="#999999" stroke="none"></rect><text xml:space="preserve" transform="translate(-160.67997115297115 333.66305708187855) scale(1) translate(936.1337158356865 72.56155894353873) translate(1.959434878635765e-15 32) translate(0 0) translate(-30.06884765625 0)" x="7" y="9.78564453125" font-family="sans-serif" font-size="10" font-weight="normal" text-anchor="undefined" fill="#ffffff">Procedure</text><rect transform="translate(-160.67997115297115 333.66305708187855) scale(1) translate(936.1337158356865 72.56155894353873) translate(1.959434878635765e-15 32) translate(0 14) translate(-33.0712890625 0)" x="0" y="0" width="66.142578125" height="36" rx="0" ry="0" fill="white" stroke="none"></rect><text xml:space="preserve" transform="translate(-160.67997115297115 333.66305708187855) scale(1) translate(936.1337158356865 72.56155894353873) translate(1.959434878635765e-15 32) translate(0 14) translate(-33.0712890625 0)" x="34.462890625" y="8.78564453125" font-family="sans-serif" font-size="10" font-weight="normal" text-anchor="end" fill="#000000">id:</text><text xml:space="preserve" transform="translate(-160.67997115297115 333.66305708187855) scale(1) translate(936.1337158356865 72.56155894353873) translate(1.959434878635765e-15 32) translate(0 14) translate(-33.0712890625 0)" x="37.2412109375" y="8.78564453125" font-family="sans-serif" font-size="10" font-weight="normal" text-anchor="start" fill="#000000">ID</text><text xml:space="preserve" transform="translate(-160.67997115297115 333.66305708187855) scale(1) translate(936.1337158356865 72.56155894353873) translate(1.959434878635765e-15 32) translate(0 14) translate(-33.0712890625 0)" x="34.462890625" y="20.78564453125" font-family="sans-serif" font-size="10" font-weight="normal" text-anchor="end" fill="#000000">name:</text><text xml:space="preserve" transform="translate(-160.67997115297115 333.66305708187855) scale(1) translate(936.1337158356865 72.56155894353873) translate(1.959434878635765e-15 32) translate(0 14) translate(-33.0712890625 0)" x="37.2412109375" y="20.78564453125" font-family="sans-serif" font-size="10" font-weight="normal" text-anchor="start" fill="#000000">String</text><text xml:space="preserve" transform="translate(-160.67997115297115 333.66305708187855) scale(1) translate(936.1337158356865 72.56155894353873) translate(1.959434878635765e-15 32) translate(0 14) translate(-33.0712890625 0)" x="34.462890625" y="32.78564453125" font-family="sans-serif" font-size="10" font-weight="normal" text-anchor="end" fill="#000000">details:</text><text xml:space="preserve" transform="translate(-160.67997115297115 333.66305708187855) scale(1) translate(936.1337158356865 72.56155894353873) translate(1.959434878635765e-15 32) translate(0 14) translate(-33.0712890625 0)" x="37.2412109375" y="32.78564453125" font-family="sans-serif" font-size="10" font-weight="normal" text-anchor="start" fill="#000000">List</text><circle transform="translate(-160.67997115297115 333.66305708187855) scale(1)" cx="254.93094771547115" cy="173.39879413352273" r="31" fill="#f44e3b" stroke="#4d4d4d" strokewidth="2"></circle><text xml:space="preserve" transform="translate(-160.67997115297115 333.66305708187855) scale(1) translate(254.93094771547115 173.39879413352273) scale(1) translate(0 0) translate(0 0)" x="0" y="5.5712890625" font-family="sans-serif" font-size="20" font-weight="normal" text-anchor="middle" fill="#ffffff">x</text><rect transform="translate(-160.67997115297115 333.66305708187855) scale(1) translate(254.93094771547115 173.39879413352273) translate(-32 -18.999999999999996) translate(0 0) translate(-49.56640625 0)" x="0" y="0" width="49.56640625" height="14" rx="7" ry="7" fill="#999999" stroke="none"></rect><text xml:space="preserve" transform="translate(-160.67997115297115 333.66305708187855) scale(1) translate(254.93094771547115 173.39879413352273) translate(-32 -18.999999999999996) translate(0 0) translate(-49.56640625 0)" x="7" y="9.78564453125" font-family="sans-serif" font-size="10" font-weight="normal" text-anchor="undefined" fill="#ffffff">Material</text><rect transform="translate(-160.67997115297115 333.66305708187855) scale(1) translate(254.93094771547115 173.39879413352273) translate(-32 -18.999999999999996) translate(0 14) translate(-62.2509765625 0)" x="0" y="0" width="62.2509765625" height="24" rx="0" ry="0" fill="white" stroke="none"></rect><text xml:space="preserve" transform="translate(-160.67997115297115 333.66305708187855) scale(1) translate(254.93094771547115 173.39879413352273) translate(-32 -18.999999999999996) translate(0 14) translate(-62.2509765625 0)" x="30.5712890625" y="8.78564453125" font-family="sans-serif" font-size="10" font-weight="normal" text-anchor="end" fill="#000000">id:</text><text xml:space="preserve" transform="translate(-160.67997115297115 333.66305708187855) scale(1) translate(254.93094771547115 173.39879413352273) translate(-32 -18.999999999999996) translate(0 14) translate(-62.2509765625 0)" x="33.349609375" y="8.78564453125" font-family="sans-serif" font-size="10" font-weight="normal" text-anchor="start" fill="#000000">ID</text><text xml:space="preserve" transform="translate(-160.67997115297115 333.66305708187855) scale(1) translate(254.93094771547115 173.39879413352273) translate(-32 -18.999999999999996) translate(0 14) translate(-62.2509765625 0)" x="30.5712890625" y="20.78564453125" font-family="sans-serif" font-size="10" font-weight="normal" text-anchor="end" fill="#000000">name:</text><text xml:space="preserve" transform="translate(-160.67997115297115 333.66305708187855) scale(1) translate(254.93094771547115 173.39879413352273) translate(-32 -18.999999999999996) translate(0 14) translate(-62.2509765625 0)" x="33.349609375" y="20.78564453125" font-family="sans-serif" font-size="10" font-weight="normal" text-anchor="start" fill="#000000">String</text><circle transform="translate(-160.67997115297115 333.66305708187855) scale(1)" cx="254.93094771547115" cy="284.9250818691543" r="31" fill="#f44e3b" stroke="#4d4d4d" strokewidth="2"></circle><text xml:space="preserve" transform="translate(-160.67997115297115 333.66305708187855) scale(1) translate(254.93094771547115 284.9250818691543) scale(1) translate(0 0) translate(0 0)" x="0" y="5.5712890625" font-family="sans-serif" font-size="20" font-weight="normal" text-anchor="middle" fill="#ffffff">y</text><rect transform="translate(-160.67997115297115 333.66305708187855) scale(1) translate(254.93094771547115 284.9250818691543) translate(-32 -18.999999999999996) translate(0 0) translate(-49.56640625 0)" x="0" y="0" width="49.56640625" height="14" rx="7" ry="7" fill="#999999" stroke="none"></rect><text xml:space="preserve" transform="translate(-160.67997115297115 333.66305708187855) scale(1) translate(254.93094771547115 284.9250818691543) translate(-32 -18.999999999999996) translate(0 0) translate(-49.56640625 0)" x="7" y="9.78564453125" font-family="sans-serif" font-size="10" font-weight="normal" text-anchor="undefined" fill="#ffffff">Material</text><rect transform="translate(-160.67997115297115 333.66305708187855) scale(1) translate(254.93094771547115 284.9250818691543) translate(-32 -18.999999999999996) translate(0 14) translate(-62.2509765625 0)" x="0" y="0" width="62.2509765625" height="24" rx="0" ry="0" fill="white" stroke="none"></rect><text xml:space="preserve" transform="translate(-160.67997115297115 333.66305708187855) scale(1) translate(254.93094771547115 284.9250818691543) translate(-32 -18.999999999999996) translate(0 14) translate(-62.2509765625 0)" x="30.5712890625" y="8.78564453125" font-family="sans-serif" font-size="10" font-weight="normal" text-anchor="end" fill="#000000">id:</text><text xml:space="preserve" transform="translate(-160.67997115297115 333.66305708187855) scale(1) translate(254.93094771547115 284.9250818691543) translate(-32 -18.999999999999996) translate(0 14) translate(-62.2509765625 0)" x="33.349609375" y="8.78564453125" font-family="sans-serif" font-size="10" font-weight="normal" text-anchor="start" fill="#000000">ID</text><text xml:space="preserve" transform="translate(-160.67997115297115 333.66305708187855) scale(1) translate(254.93094771547115 284.9250818691543) translate(-32 -18.999999999999996) translate(0 14) translate(-62.2509765625 0)" x="30.5712890625" y="20.78564453125" font-family="sans-serif" font-size="10" font-weight="normal" text-anchor="end" fill="#000000">name:</text><text xml:space="preserve" transform="translate(-160.67997115297115 333.66305708187855) scale(1) translate(254.93094771547115 284.9250818691543) translate(-32 -18.999999999999996) translate(0 14) translate(-62.2509765625 0)" x="33.349609375" y="20.78564453125" font-family="sans-serif" font-size="10" font-weight="normal" text-anchor="start" fill="#000000">String</text><circle transform="translate(-160.67997115297115 333.66305708187855) scale(1)" cx="1143.3526923469112" cy="72.56155894353873" r="31" fill="#653294" stroke="#4d4d4d" strokewidth="2"></circle><text xml:space="preserve" transform="translate(-160.67997115297115 333.66305708187855) scale(1) translate(1143.3526923469112 72.56155894353873) scale(1) translate(0 0) translate(0 0)" x="0" y="5.5712890625" font-family="sans-serif" font-size="20" font-weight="normal" text-anchor="middle" fill="#ffffff">C</text><rect transform="translate(-160.67997115297115 333.66305708187855) scale(1) translate(1143.3526923469112 72.56155894353873) translate(22.627416997969522 22.62741699796952) translate(0 0) translate(0 0)" x="0" y="0" width="60.1376953125" height="14" rx="7" ry="7" fill="#999999" stroke="none"></rect><text xml:space="preserve" transform="translate(-160.67997115297115 333.66305708187855) scale(1) translate(1143.3526923469112 72.56155894353873) translate(22.627416997969522 22.62741699796952) translate(0 0) translate(0 0)" x="7" y="9.78564453125" font-family="sans-serif" font-size="10" font-weight="normal" text-anchor="undefined" fill="#ffffff">Procedure</text><rect transform="translate(-160.67997115297115 333.66305708187855) scale(1) translate(1143.3526923469112 72.56155894353873) translate(22.627416997969522 22.62741699796952) translate(0 14) translate(0 0)" x="0" y="0" width="66.142578125" height="36" rx="0" ry="0" fill="white" stroke="none"></rect><text xml:space="preserve" transform="translate(-160.67997115297115 333.66305708187855) scale(1) translate(1143.3526923469112 72.56155894353873) translate(22.627416997969522 22.62741699796952) translate(0 14) translate(0 0)" x="34.462890625" y="8.78564453125" font-family="sans-serif" font-size="10" font-weight="normal" text-anchor="end" fill="#000000">id:</text><text xml:space="preserve" transform="translate(-160.67997115297115 333.66305708187855) scale(1) translate(1143.3526923469112 72.56155894353873) translate(22.627416997969522 22.62741699796952) translate(0 14) translate(0 0)" x="37.2412109375" y="8.78564453125" font-family="sans-serif" font-size="10" font-weight="normal" text-anchor="start" fill="#000000">ID</text><text xml:space="preserve" transform="translate(-160.67997115297115 333.66305708187855) scale(1) translate(1143.3526923469112 72.56155894353873) translate(22.627416997969522 22.62741699796952) translate(0 14) translate(0 0)" x="34.462890625" y="20.78564453125" font-family="sans-serif" font-size="10" font-weight="normal" text-anchor="end" fill="#000000">name:</text><text xml:space="preserve" transform="translate(-160.67997115297115 333.66305708187855) scale(1) translate(1143.3526923469112 72.56155894353873) translate(22.627416997969522 22.62741699796952) translate(0 14) translate(0 0)" x="37.2412109375" y="20.78564453125" font-family="sans-serif" font-size="10" font-weight="normal" text-anchor="start" fill="#000000">String</text><text xml:space="preserve" transform="translate(-160.67997115297115 333.66305708187855) scale(1) translate(1143.3526923469112 72.56155894353873) translate(22.627416997969522 22.62741699796952) translate(0 14) translate(0 0)" x="34.462890625" y="32.78564453125" font-family="sans-serif" font-size="10" font-weight="normal" text-anchor="end" fill="#000000">details:</text><text xml:space="preserve" transform="translate(-160.67997115297115 333.66305708187855) scale(1) translate(1143.3526923469112 72.56155894353873) translate(22.627416997969522 22.62741699796952) translate(0 14) translate(0 0)" x="37.2412109375" y="32.78564453125" font-family="sans-serif" font-size="10" font-weight="normal" text-anchor="start" fill="#000000">List</text><circle transform="translate(-160.67997115297115 333.66305708187855) scale(1)" cx="1143.3526923469112" cy="-75.657417567686" r="31" fill="#68bc00" stroke="#4d4d4d" strokewidth="2"></circle><text xml:space="preserve" transform="translate(-160.67997115297115 333.66305708187855) scale(1) translate(1143.3526923469112 -75.657417567686) scale(1) translate(0 0) translate(0 0)" x="0" y="5.5712890625" font-family="sans-serif" font-size="20" font-weight="normal" text-anchor="middle" fill="#ffffff">c01</text><rect transform="translate(-160.67997115297115 333.66305708187855) scale(1) translate(1143.3526923469112 -75.657417567686) translate(32 -19) translate(0 0) translate(0 0)" x="0" y="0" width="80.69921875" height="14" rx="7" ry="7" fill="#999999" stroke="none"></rect><text xml:space="preserve" transform="translate(-160.67997115297115 333.66305708187855) scale(1) translate(1143.3526923469112 -75.657417567686) translate(32 -19) translate(0 0) translate(0 0)" x="7" y="9.78564453125" font-family="sans-serif" font-size="10" font-weight="normal" text-anchor="undefined" fill="#ffffff">ProcedureTask</text><rect transform="translate(-160.67997115297115 333.66305708187855) scale(1) translate(1143.3526923469112 -75.657417567686) translate(32 -19) translate(0 14) translate(0 0)" x="0" y="0" width="90.048828125" height="24" rx="0" ry="0" fill="white" stroke="none"></rect><text xml:space="preserve" transform="translate(-160.67997115297115 333.66305708187855) scale(1) translate(1143.3526923469112 -75.657417567686) translate(32 -19) translate(0 14) translate(0 0)" x="64.4775390625" y="8.78564453125" font-family="sans-serif" font-size="10" font-weight="normal" text-anchor="end" fill="#000000">is_completed:</text><text xml:space="preserve" transform="translate(-160.67997115297115 333.66305708187855) scale(1) translate(1143.3526923469112 -75.657417567686) translate(32 -19) translate(0 14) translate(0 0)" x="67.255859375" y="8.78564453125" font-family="sans-serif" font-size="10" font-weight="normal" text-anchor="start" fill="#000000">Bool</text><text xml:space="preserve" transform="translate(-160.67997115297115 333.66305708187855) scale(1) translate(1143.3526923469112 -75.657417567686) translate(32 -19) translate(0 14) translate(0 0)" x="64.4775390625" y="20.78564453125" font-family="sans-serif" font-size="10" font-weight="normal" text-anchor="end" fill="#000000">id:</text><text xml:space="preserve" transform="translate(-160.67997115297115 333.66305708187855) scale(1) translate(1143.3526923469112 -75.657417567686) translate(32 -19) translate(0 14) translate(0 0)" x="67.255859375" y="20.78564453125" font-family="sans-serif" font-size="10" font-weight="normal" text-anchor="start" fill="#000000">ID</text><circle transform="translate(-160.67997115297115 333.66305708187855) scale(1)" cx="936.1337158356865" cy="-75.657417567686" r="31" fill="#68bc00" stroke="#2870c2" strokewidth="2"></circle><text xml:space="preserve" transform="translate(-160.67997115297115 333.66305708187855) scale(1) translate(936.1337158356865 -75.657417567686) scale(1) translate(0 0) translate(0 0)" x="0" y="5.5712890625" font-family="sans-serif" font-size="20" font-weight="normal" text-anchor="middle" fill="#ffffff">b01</text><rect transform="translate(-160.67997115297115 333.66305708187855) scale(1) translate(936.1337158356865 -75.657417567686) translate(22.627416997969522 -60.62741699796952) translate(0 0) translate(0 0)" x="0" y="0" width="80.69921875" height="14" rx="7" ry="7" fill="#999999" stroke="none"></rect><text xml:space="preserve" transform="translate(-160.67997115297115 333.66305708187855) scale(1) translate(936.1337158356865 -75.657417567686) translate(22.627416997969522 -60.62741699796952) translate(0 0) translate(0 0)" x="7" y="9.78564453125" font-family="sans-serif" font-size="10" font-weight="normal" text-anchor="undefined" fill="#ffffff">ProcedureTask</text><rect transform="translate(-160.67997115297115 333.66305708187855) scale(1) translate(936.1337158356865 -75.657417567686) translate(22.627416997969522 -60.62741699796952) translate(0 14) translate(0 0)" x="0" y="0" width="90.048828125" height="24" rx="0" ry="0" fill="white" stroke="none"></rect><text xml:space="preserve" transform="translate(-160.67997115297115 333.66305708187855) scale(1) translate(936.1337158356865 -75.657417567686) translate(22.627416997969522 -60.62741699796952) translate(0 14) translate(0 0)" x="64.4775390625" y="8.78564453125" font-family="sans-serif" font-size="10" font-weight="normal" text-anchor="end" fill="#000000">id:</text><text xml:space="preserve" transform="translate(-160.67997115297115 333.66305708187855) scale(1) translate(936.1337158356865 -75.657417567686) translate(22.627416997969522 -60.62741699796952) translate(0 14) translate(0 0)" x="67.255859375" y="8.78564453125" font-family="sans-serif" font-size="10" font-weight="normal" text-anchor="start" fill="#000000">ID</text><text xml:space="preserve" transform="translate(-160.67997115297115 333.66305708187855) scale(1) translate(936.1337158356865 -75.657417567686) translate(22.627416997969522 -60.62741699796952) translate(0 14) translate(0 0)" x="64.4775390625" y="20.78564453125" font-family="sans-serif" font-size="10" font-weight="normal" text-anchor="end" fill="#000000">is_completed:</text><text xml:space="preserve" transform="translate(-160.67997115297115 333.66305708187855) scale(1) translate(936.1337158356865 -75.657417567686) translate(22.627416997969522 -60.62741699796952) translate(0 14) translate(0 0)" x="67.255859375" y="20.78564453125" font-family="sans-serif" font-size="10" font-weight="normal" text-anchor="start" fill="#000000">Bool</text><circle transform="translate(-160.67997115297115 333.66305708187855) scale(1)" cx="1143.3526923469112" cy="-239.66305708187855" r="31" fill="#4C8EDA" stroke="#4d4d4d" strokewidth="2"></circle><text xml:space="preserve" transform="translate(-160.67997115297115 333.66305708187855) scale(1) translate(1143.3526923469112 -239.66305708187855) scale(1) translate(0 0) translate(0 0)" x="0" y="5.5712890625" font-family="sans-serif" font-size="20" font-weight="normal" text-anchor="middle" fill="#ffffff">w2</text><rect transform="translate(-160.67997115297115 333.66305708187855) scale(1) translate(1143.3526923469112 -239.66305708187855) translate(1.959434878635765e-15 -94) translate(0 0) translate(-17.556640625 0)" x="0" y="0" width="35.11328125" height="14" rx="7" ry="7" fill="#999999" stroke="none"></rect><text xml:space="preserve" transform="translate(-160.67997115297115 333.66305708187855) scale(1) translate(1143.3526923469112 -239.66305708187855) translate(1.959434878635765e-15 -94) translate(0 0) translate(-17.556640625 0)" x="7" y="9.78564453125" font-family="sans-serif" font-size="10" font-weight="normal" text-anchor="undefined" fill="#ffffff">User</text><rect transform="translate(-160.67997115297115 333.66305708187855) scale(1) translate(1143.3526923469112 -239.66305708187855) translate(1.959434878635765e-15 -94) translate(0 14) translate(-43.9111328125 0)" x="0" y="0" width="87.822265625" height="48" rx="0" ry="0" fill="white" stroke="none"></rect><text xml:space="preserve" transform="translate(-160.67997115297115 333.66305708187855) scale(1) translate(1143.3526923469112 -239.66305708187855) translate(1.959434878635765e-15 -94) translate(0 14) translate(-43.9111328125 0)" x="56.142578125" y="8.78564453125" font-family="sans-serif" font-size="10" font-weight="normal" text-anchor="end" fill="#000000">id:</text><text xml:space="preserve" transform="translate(-160.67997115297115 333.66305708187855) scale(1) translate(1143.3526923469112 -239.66305708187855) translate(1.959434878635765e-15 -94) translate(0 14) translate(-43.9111328125 0)" x="58.9208984375" y="8.78564453125" font-family="sans-serif" font-size="10" font-weight="normal" text-anchor="start" fill="#000000">ID</text><text xml:space="preserve" transform="translate(-160.67997115297115 333.66305708187855) scale(1) translate(1143.3526923469112 -239.66305708187855) translate(1.959434878635765e-15 -94) translate(0 14) translate(-43.9111328125 0)" x="56.142578125" y="20.78564453125" font-family="sans-serif" font-size="10" font-weight="normal" text-anchor="end" fill="#000000">name:</text><text xml:space="preserve" transform="translate(-160.67997115297115 333.66305708187855) scale(1) translate(1143.3526923469112 -239.66305708187855) translate(1.959434878635765e-15 -94) translate(0 14) translate(-43.9111328125 0)" x="58.9208984375" y="20.78564453125" font-family="sans-serif" font-size="10" font-weight="normal" text-anchor="start" fill="#000000">String</text><text xml:space="preserve" transform="translate(-160.67997115297115 333.66305708187855) scale(1) translate(1143.3526923469112 -239.66305708187855) translate(1.959434878635765e-15 -94) translate(0 14) translate(-43.9111328125 0)" x="56.142578125" y="32.78564453125" font-family="sans-serif" font-size="10" font-weight="normal" text-anchor="end" fill="#000000">department:</text><text xml:space="preserve" transform="translate(-160.67997115297115 333.66305708187855) scale(1) translate(1143.3526923469112 -239.66305708187855) translate(1.959434878635765e-15 -94) translate(0 14) translate(-43.9111328125 0)" x="58.9208984375" y="32.78564453125" font-family="sans-serif" font-size="10" font-weight="normal" text-anchor="start" fill="#000000">String</text><text xml:space="preserve" transform="translate(-160.67997115297115 333.66305708187855) scale(1) translate(1143.3526923469112 -239.66305708187855) translate(1.959434878635765e-15 -94) translate(0 14) translate(-43.9111328125 0)" x="56.142578125" y="44.78564453125" font-family="sans-serif" font-size="10" font-weight="normal" text-anchor="end" fill="#000000">role:</text><text xml:space="preserve" transform="translate(-160.67997115297115 333.66305708187855) scale(1) translate(1143.3526923469112 -239.66305708187855) translate(1.959434878635765e-15 -94) translate(0 14) translate(-43.9111328125 0)" x="58.9208984375" y="44.78564453125" font-family="sans-serif" font-size="10" font-weight="normal" text-anchor="start" fill="#000000">String</text></svg>