<svg xmlns="http://www.w3.org/2000/svg" xmlns:xlink="http://www.w3.org/1999/xlink" width="1701" height="752" viewbox="0 0 1701 752"><path transform="translate(27 95) scale(1) translate(600.2943510183305 589.1916297722468) rotate(-20.17554768035868)" d="M 27 0 L 342.6385613146086 0" fill="none" stroke="#A5ABB6" stroke-width="1"></path><polygon transform="translate(27 95) scale(1) translate(600.2943510183305 589.1916297722468) rotate(-20.17554768035868) translate(352.08856131460857 0) rotate(0)" points="-9.45,0 -10.5,3.5 0,0 -10.5,-3.5" fill="undefined" stroke="none" stroke-width="1"></polygon><rect transform="translate(27 95) scale(1) translate(773.773176319994 525.4478953771054) rotate(-20.17554768035868) translate(0 -7) translate(0 0) translate(-31.7265625 0)" x="0" y="0" width="63.453125" height="14" rx="2" ry="2" fill="#ffffff" stroke="none"></rect><text xml:space="preserve" transform="translate(27 95) scale(1) translate(773.773176319994 525.4478953771054) rotate(-20.17554768035868) translate(0 -7) translate(0 0) translate(-31.7265625 0)" x="2" y="9.78564453125" font-family="sans-serif" font-size="10" font-weight="normal" text-anchor="left" fill="#000000">HAS_CRAFT</text><path transform="translate(27 95) scale(1) translate(956.1221524699366 589.1916297722468) rotate(180)" d="M 27 0 L 319.3778014516061 0" fill="none" stroke="#A5ABB6" stroke-width="1"></path><polygon transform="translate(27 95) scale(1) translate(956.1221524699366 589.1916297722468) rotate(180) translate(328.8278014516061 0) rotate(0)" points="-9.45,0 -10.5,3.5 0,0 -10.5,-3.5" fill="undefined" stroke="none" stroke-width="1"></polygon><rect transform="translate(27 95) scale(1) translate(782.9332517441336 589.1916297722468) rotate(360) translate(0 -13) translate(0 0) translate(-43.03271484375 0)" x="0" y="0" width="86.0654296875" height="14" rx="2" ry="2" fill="#ffffff" stroke="none"></rect><text xml:space="preserve" transform="translate(27 95) scale(1) translate(782.9332517441336 589.1916297722468) rotate(360) translate(0 -13) translate(0 0) translate(-43.03271484375 0)" x="2" y="9.78564453125" font-family="sans-serif" font-size="10" font-weight="normal" text-anchor="left" fill="#000000">USES_MATERIAL</text><rect transform="translate(27 95) scale(1) translate(782.9332517441336 589.1916297722468) rotate(360) translate(0 -13) translate(0 14) translate(-37.80029296875 0)" x="0" y="0" width="75.6005859375" height="12" rx="0" ry="0" fill="white" stroke="none"></rect><text xml:space="preserve" transform="translate(27 95) scale(1) translate(782.9332517441336 589.1916297722468) rotate(360) translate(0 -13) translate(0 14) translate(-37.80029296875 0)" x="38.9111328125" y="8.78564453125" font-family="sans-serif" font-size="10" font-weight="normal" text-anchor="end" fill="#000000">amount:</text><text xml:space="preserve" transform="translate(27 95) scale(1) translate(782.9332517441336 589.1916297722468) rotate(360) translate(0 -13) translate(0 14) translate(-37.80029296875 0)" x="41.689453125" y="8.78564453125" font-family="sans-serif" font-size="10" font-weight="normal" text-anchor="start" fill="#000000">Integer</text><path transform="translate(27 95) scale(1) translate(956.1221524699366 458.4448782497094) rotate(0)" d="M 26.33607230551508 -5.950739073315302 L 39.90372445553387 -9.016403415577901 A 40 40 0 0 1 48.71963419377876 -10 L 125.65330688720479 -10 L 202.58697958063084 -10 A 40 40 0 0 1 211.40288931887576 -9.01640341557789 L 215.7529161619642 -8.033497748975657 L 215.7529161619642 -8.033497748975657" fill="none" stroke="#A5ABB6" stroke-width="1"></path><polygon transform="translate(27 95) scale(1) translate(956.1221524699366 458.4448782497094) rotate(0) translate(251.30661377440958 0) rotate(12.732395447351628) translate(-27 0)" points="-9.45,0 -10.5,3.5 0,0 -10.5,-3.5" fill="#A5ABB6" stroke="none" stroke-width="1"></polygon><rect transform="translate(27 95) scale(1) translate(1081.7754593571415 448.4448782497094) rotate(0) translate(0 -7) translate(0 0) translate(-51.17236328125 0)" x="0" y="0" width="102.3447265625" height="14" rx="2" ry="2" fill="#ffffff" stroke="none"></rect><text xml:space="preserve" transform="translate(27 95) scale(1) translate(1081.7754593571415 448.4448782497094) rotate(0) translate(0 -7) translate(0 0) translate(-51.17236328125 0)" x="2" y="9.78564453125" font-family="sans-serif" font-size="10" font-weight="normal" text-anchor="left" fill="#000000">FIRST_PROCEDURE</text><path transform="translate(27 95) scale(1) translate(956.1221524699366 458.4448782497094) rotate(0)" d="M 26.33607230551508 5.950739073315302 L 39.90372445553387 9.016403415577901 A 40 40 0 0 0 48.71963419377876 10 L 125.65330688720479 10 L 202.58697958063084 10 A 40 40 0 0 0 211.40288931887576 9.01640341557789 L 215.7529161619642 8.033497748975657 L 215.7529161619642 8.033497748975657" fill="none" stroke="#A5ABB6" stroke-width="1"></path><polygon transform="translate(27 95) scale(1) translate(956.1221524699366 458.4448782497094) rotate(0) translate(251.30661377440958 0) rotate(-12.732395447351628) translate(-27 0)" points="-9.45,0 -10.5,3.5 0,0 -10.5,-3.5" fill="#A5ABB6" stroke="none" stroke-width="1"></polygon><rect transform="translate(27 95) scale(1) translate(1081.7754593571415 468.4448782497094) rotate(0) translate(0 -7) translate(0 0) translate(-49.23388671875 0)" x="0" y="0" width="98.4677734375" height="14" rx="2" ry="2" fill="#ffffff" stroke="none"></rect><text xml:space="preserve" transform="translate(27 95) scale(1) translate(1081.7754593571415 468.4448782497094) rotate(0) translate(0 -7) translate(0 0) translate(-49.23388671875 0)" x="2" y="9.78564453125" font-family="sans-serif" font-size="10" font-weight="normal" text-anchor="left" fill="#000000">LAST_PROCEDURE</text><path transform="translate(27 95) scale(1) translate(1541.641919085549 149.5588269602626) rotate(154.96625170623219)" d="M 27 0 L 1002.4976624038322 0" fill="none" stroke="#A5ABB6" stroke-width="1"></path><polygon transform="translate(27 95) scale(1) translate(1541.641919085549 149.5588269602626) rotate(154.96625170623219) translate(1011.9476624038323 0) rotate(0)" points="-9.45,0 -10.5,3.5 0,0 -10.5,-3.5" fill="undefined" stroke="none" stroke-width="1"></polygon><rect transform="translate(27 95) scale(1) translate(1075.2492624080826 367.37583506815486) rotate(334.9662517062322) translate(0 -13) translate(0 0) translate(-39.783203125 0)" x="0" y="0" width="79.56640625" height="14" rx="2" ry="2" fill="#ffffff" stroke="none"></rect><text xml:space="preserve" transform="translate(27 95) scale(1) translate(1075.2492624080826 367.37583506815486) rotate(334.9662517062322) translate(0 -13) translate(0 0) translate(-39.783203125 0)" x="2" y="9.78564453125" font-family="sans-serif" font-size="10" font-weight="normal" text-anchor="left" fill="#000000">HAS_PRODUCT</text><rect transform="translate(27 95) scale(1) translate(1075.2492624080826 367.37583506815486) rotate(334.9662517062322) translate(0 -13) translate(0 14) translate(-37.80029296875 0)" x="0" y="0" width="75.6005859375" height="12" rx="0" ry="0" fill="white" stroke="none"></rect><text xml:space="preserve" transform="translate(27 95) scale(1) translate(1075.2492624080826 367.37583506815486) rotate(334.9662517062322) translate(0 -13) translate(0 14) translate(-37.80029296875 0)" x="38.9111328125" y="8.78564453125" font-family="sans-serif" font-size="10" font-weight="normal" text-anchor="end" fill="#000000">amount:</text><text xml:space="preserve" transform="translate(27 95) scale(1) translate(1075.2492624080826 367.37583506815486) rotate(334.9662517062322) translate(0 -13) translate(0 14) translate(-37.80029296875 0)" x="41.689453125" y="8.78564453125" font-family="sans-serif" font-size="10" font-weight="normal" text-anchor="start" fill="#000000">Integer</text><path transform="translate(27 95) scale(1) translate(1541.641919085549 149.5588269602626) rotate(168.86518132389023)" d="M 27 0 L 560.3033578989608 0" fill="none" stroke="#A5ABB6" stroke-width="1"></path><polygon transform="translate(27 95) scale(1) translate(1541.641919085549 149.5588269602626) rotate(168.86518132389023) translate(569.7533578989609 0) rotate(0)" points="-9.45,0 -10.5,3.5 0,0 -10.5,-3.5" fill="undefined" stroke="none" stroke-width="1"></polygon><rect transform="translate(27 95) scale(1) translate(1253.5180899542945 206.26832913223035) rotate(348.8651813238902) translate(0 -13) translate(0 0) translate(-28.123046875 0)" x="0" y="0" width="56.24609375" height="14" rx="2" ry="2" fill="#ffffff" stroke="none"></rect><text xml:space="preserve" transform="translate(27 95) scale(1) translate(1253.5180899542945 206.26832913223035) rotate(348.8651813238902) translate(0 -13) translate(0 0) translate(-28.123046875 0)" x="2" y="9.78564453125" font-family="sans-serif" font-size="10" font-weight="normal" text-anchor="left" fill="#000000">HAS_PLAN</text><rect transform="translate(27 95) scale(1) translate(1253.5180899542945 206.26832913223035) rotate(348.8651813238902) translate(0 -13) translate(0 14) translate(-43.4423828125 0)" x="0" y="0" width="86.884765625" height="12" rx="0" ry="0" fill="white" stroke="none"></rect><text xml:space="preserve" transform="translate(27 95) scale(1) translate(1253.5180899542945 206.26832913223035) rotate(348.8651813238902) translate(0 -13) translate(0 14) translate(-43.4423828125 0)" x="38.349609375" y="8.78564453125" font-family="sans-serif" font-size="10" font-weight="normal" text-anchor="end" fill="#000000">at_time:</text><text xml:space="preserve" transform="translate(27 95) scale(1) translate(1253.5180899542945 206.26832913223035) rotate(348.8651813238902) translate(0 -13) translate(0 14) translate(-43.4423828125 0)" x="41.1279296875" y="8.78564453125" font-family="sans-serif" font-size="10" font-weight="normal" text-anchor="start" fill="#000000">DateTime</text><path transform="translate(27 95) scale(1) translate(1541.641919085549 -4) rotate(90)" d="M 27 0 L 117.10882696026259 0" fill="none" stroke="#A5ABB6" stroke-width="1"></path><polygon transform="translate(27 95) scale(1) translate(1541.641919085549 -4) rotate(90) translate(126.55882696026259 0) rotate(0)" points="-9.45,0 -10.5,3.5 0,0 -10.5,-3.5" fill="undefined" stroke="none" stroke-width="1"></polygon><rect transform="translate(27 95) scale(1) translate(1541.641919085549 68.0544134801313) rotate(270) translate(0 -13) translate(0 0) translate(-33.1181640625 0)" x="0" y="0" width="66.236328125" height="14" rx="2" ry="2" fill="#ffffff" stroke="none"></rect><text xml:space="preserve" transform="translate(27 95) scale(1) translate(1541.641919085549 68.0544134801313) rotate(270) translate(0 -13) translate(0 0) translate(-33.1181640625 0)" x="2" y="9.78564453125" font-family="sans-serif" font-size="10" font-weight="normal" text-anchor="left" fill="#000000">HAS_ORDER</text><rect transform="translate(27 95) scale(1) translate(1541.641919085549 68.0544134801313) rotate(270) translate(0 -13) translate(0 14) translate(-43.4423828125 0)" x="0" y="0" width="86.884765625" height="12" rx="0" ry="0" fill="white" stroke="none"></rect><text xml:space="preserve" transform="translate(27 95) scale(1) translate(1541.641919085549 68.0544134801313) rotate(270) translate(0 -13) translate(0 14) translate(-43.4423828125 0)" x="38.349609375" y="8.78564453125" font-family="sans-serif" font-size="10" font-weight="normal" text-anchor="end" fill="#000000">at_time:</text><text xml:space="preserve" transform="translate(27 95) scale(1) translate(1541.641919085549 68.0544134801313) rotate(270) translate(0 -13) translate(0 14) translate(-43.4423828125 0)" x="41.1279296875" y="8.78564453125" font-family="sans-serif" font-size="10" font-weight="normal" text-anchor="start" fill="#000000">DateTime</text><path transform="translate(27 95) scale(1) translate(600.2943510183305 149.5588269602626) rotate(90)" d="M 27 0 L 403.1828028119842 0" fill="none" stroke="#A5ABB6" stroke-width="1"></path><polygon transform="translate(27 95) scale(1) translate(600.2943510183305 149.5588269602626) rotate(90) translate(412.63280281198416 0) rotate(0)" points="-9.45,0 -10.5,3.5 0,0 -10.5,-3.5" fill="undefined" stroke="none" stroke-width="1"></polygon><rect transform="translate(27 95) scale(1) translate(600.2943510183305 364.6502283662547) rotate(270) translate(0 -25) translate(0 0) translate(-44.421875 0)" x="0" y="0" width="88.84375" height="14" rx="2" ry="2" fill="#ffffff" stroke="none"></rect><text xml:space="preserve" transform="translate(27 95) scale(1) translate(600.2943510183305 364.6502283662547) rotate(270) translate(0 -25) translate(0 0) translate(-44.421875 0)" x="2" y="9.78564453125" font-family="sans-serif" font-size="10" font-weight="normal" text-anchor="left" fill="#000000">SHIPS_MATERIAL</text><rect transform="translate(27 95) scale(1) translate(600.2943510183305 364.6502283662547) rotate(270) translate(0 -25) translate(0 14) translate(-45.11474609375 0)" x="0" y="0" width="90.2294921875" height="36" rx="0" ry="0" fill="white" stroke="none"></rect><text xml:space="preserve" transform="translate(27 95) scale(1) translate(600.2943510183305 364.6502283662547) rotate(270) translate(0 -25) translate(0 14) translate(-45.11474609375 0)" x="41.6943359375" y="8.78564453125" font-family="sans-serif" font-size="10" font-weight="normal" text-anchor="end" fill="#000000">amount:</text><text xml:space="preserve" transform="translate(27 95) scale(1) translate(600.2943510183305 364.6502283662547) rotate(270) translate(0 -25) translate(0 14) translate(-45.11474609375 0)" x="44.47265625" y="8.78564453125" font-family="sans-serif" font-size="10" font-weight="normal" text-anchor="start" fill="#000000">Integer</text><text xml:space="preserve" transform="translate(27 95) scale(1) translate(600.2943510183305 364.6502283662547) rotate(270) translate(0 -25) translate(0 14) translate(-45.11474609375 0)" x="41.6943359375" y="20.78564453125" font-family="sans-serif" font-size="10" font-weight="normal" text-anchor="end" fill="#000000">barcode:</text><text xml:space="preserve" transform="translate(27 95) scale(1) translate(600.2943510183305 364.6502283662547) rotate(270) translate(0 -25) translate(0 14) translate(-45.11474609375 0)" x="44.47265625" y="20.78564453125" font-family="sans-serif" font-size="10" font-weight="normal" text-anchor="start" fill="#000000">String</text><text xml:space="preserve" transform="translate(27 95) scale(1) translate(600.2943510183305 364.6502283662547) rotate(270) translate(0 -25) translate(0 14) translate(-45.11474609375 0)" x="41.6943359375" y="32.78564453125" font-family="sans-serif" font-size="10" font-weight="normal" text-anchor="end" fill="#000000">at_time:</text><text xml:space="preserve" transform="translate(27 95) scale(1) translate(600.2943510183305 364.6502283662547) rotate(270) translate(0 -25) translate(0 14) translate(-45.11474609375 0)" x="44.47265625" y="32.78564453125" font-family="sans-serif" font-size="10" font-weight="normal" text-anchor="start" fill="#000000">DateTime</text><path transform="translate(27 95) scale(1) translate(956.1221524699366 264.80279888974803) rotate(0)" d="M 26.33607230551508 -5.950739073315302 L 39.90372445553387 -9.016403415577901 A 40 40 0 0 1 48.71963419377876 -10 L 125.65330688720479 -10 L 202.58697958063084 -10 A 40 40 0 0 1 211.40288931887576 -9.01640341557789 L 215.7529161619642 -8.033497748975657 L 215.7529161619642 -8.033497748975657" fill="none" stroke="#A5ABB6" stroke-width="1"></path><polygon transform="translate(27 95) scale(1) translate(956.1221524699366 264.80279888974803) rotate(0) translate(251.30661377440958 0) rotate(12.732395447351628) translate(-27 0)" points="-9.45,0 -10.5,3.5 0,0 -10.5,-3.5" fill="#A5ABB6" stroke="none" stroke-width="1"></polygon><rect transform="translate(27 95) scale(1) translate(1081.7754593571415 254.80279888974803) rotate(0) translate(0 -7) translate(0 0) translate(-31.91455078125 0)" x="0" y="0" width="63.8291015625" height="14" rx="2" ry="2" fill="#ffffff" stroke="none"></rect><text xml:space="preserve" transform="translate(27 95) scale(1) translate(1081.7754593571415 254.80279888974803) rotate(0) translate(0 -7) translate(0 0) translate(-31.91455078125 0)" x="2" y="9.78564453125" font-family="sans-serif" font-size="10" font-weight="normal" text-anchor="left" fill="#000000">FIRST_TASK</text><path transform="translate(27 95) scale(1) translate(956.1221524699366 264.80279888974803) rotate(0)" d="M 26.33607230551508 5.950739073315302 L 39.90372445553387 9.016403415577901 A 40 40 0 0 0 48.71963419377876 10 L 125.65330688720479 10 L 202.58697958063084 10 A 40 40 0 0 0 211.40288931887576 9.01640341557789 L 215.7529161619642 8.033497748975657 L 215.7529161619642 8.033497748975657" fill="none" stroke="#A5ABB6" stroke-width="1"></path><polygon transform="translate(27 95) scale(1) translate(956.1221524699366 264.80279888974803) rotate(0) translate(251.30661377440958 0) rotate(-12.732395447351628) translate(-27 0)" points="-9.45,0 -10.5,3.5 0,0 -10.5,-3.5" fill="#A5ABB6" stroke="none" stroke-width="1"></polygon><rect transform="translate(27 95) scale(1) translate(1081.7754593571415 274.80279888974803) rotate(0) translate(0 -7) translate(0 0) translate(-29.97607421875 0)" x="0" y="0" width="59.9521484375" height="14" rx="2" ry="2" fill="#ffffff" stroke="none"></rect><text xml:space="preserve" transform="translate(27 95) scale(1) translate(1081.7754593571415 274.80279888974803) rotate(0) translate(0 -7) translate(0 0) translate(-29.97607421875 0)" x="2" y="9.78564453125" font-family="sans-serif" font-size="10" font-weight="normal" text-anchor="left" fill="#000000">LAST_TASK</text><path transform="translate(27 95) scale(1) translate(600.2943510183305 149.5588269602626) rotate(114.47657531280986)" d="M 26.33607230551508 -5.950739073315302 L 39.90372445553387 -9.016403415577901 A 40 40 0 0 1 48.71963419377876 -10 L 113.4927753518591 -10 L 178.26591650993944 -10 A 40 40 0 0 1 187.0818262481843 -9.016403415577903 L 191.43185309127284 -8.033497748975657 L 191.43185309127284 -8.033497748975657" fill="none" stroke="#A5ABB6" stroke-width="1"></path><polygon transform="translate(27 95) scale(1) translate(600.2943510183305 149.5588269602626) rotate(114.47657531280986) translate(226.9855507037182 0) rotate(12.732395447351628) translate(-27 0)" points="-9.45,0 -10.5,3.5 0,0 -10.5,-3.5" fill="#A5ABB6" stroke="none" stroke-width="1"></polygon><rect transform="translate(27 95) scale(1) translate(562.3731976326918 256.9953020651841) rotate(294.47657531280987) translate(0 -13) translate(0 0) translate(-16.71923828125 0)" x="0" y="0" width="33.4384765625" height="14" rx="2" ry="2" fill="#ffffff" stroke="none"></rect><text xml:space="preserve" transform="translate(27 95) scale(1) translate(562.3731976326918 256.9953020651841) rotate(294.47657531280987) translate(0 -13) translate(0 0) translate(-16.71923828125 0)" x="2" y="9.78564453125" font-family="sans-serif" font-size="10" font-weight="normal" text-anchor="left" fill="#000000">FROM</text><rect transform="translate(27 95) scale(1) translate(562.3731976326918 256.9953020651841) rotate(294.47657531280987) translate(0 -13) translate(0 14) translate(-43.4423828125 0)" x="0" y="0" width="86.884765625" height="12" rx="0" ry="0" fill="white" stroke="none"></rect><text xml:space="preserve" transform="translate(27 95) scale(1) translate(562.3731976326918 256.9953020651841) rotate(294.47657531280987) translate(0 -13) translate(0 14) translate(-43.4423828125 0)" x="38.349609375" y="8.78564453125" font-family="sans-serif" font-size="10" font-weight="normal" text-anchor="end" fill="#000000">at_time:</text><text xml:space="preserve" transform="translate(27 95) scale(1) translate(562.3731976326918 256.9953020651841) rotate(294.47657531280987) translate(0 -13) translate(0 14) translate(-43.4423828125 0)" x="41.1279296875" y="8.78564453125" font-family="sans-serif" font-size="10" font-weight="normal" text-anchor="start" fill="#000000">DateTime</text><path transform="translate(27 95) scale(1) translate(600.2943510183305 149.5588269602626) rotate(114.47657531280986)" d="M 26.33607230551508 5.950739073315302 L 39.90372445553387 9.016403415577901 A 40 40 0 0 0 48.71963419377876 10 L 113.4927753518591 10 L 178.26591650993944 10 A 40 40 0 0 0 187.0818262481843 9.016403415577903 L 191.43185309127284 8.033497748975657 L 191.43185309127284 8.033497748975657" fill="none" stroke="#A5ABB6" stroke-width="1"></path><polygon transform="translate(27 95) scale(1) translate(600.2943510183305 149.5588269602626) rotate(114.47657531280986) translate(226.9855507037182 0) rotate(-12.732395447351628) translate(-27 0)" points="-9.45,0 -10.5,3.5 0,0 -10.5,-3.5" fill="#A5ABB6" stroke="none" stroke-width="1"></polygon><rect transform="translate(27 95) scale(1) translate(544.1705828898051 248.7088784384291) rotate(294.47657531280987) translate(0 -13) translate(0 0) translate(-8.85546875 0)" x="0" y="0" width="17.7109375" height="14" rx="2" ry="2" fill="#ffffff" stroke="none"></rect><text xml:space="preserve" transform="translate(27 95) scale(1) translate(544.1705828898051 248.7088784384291) rotate(294.47657531280987) translate(0 -13) translate(0 0) translate(-8.85546875 0)" x="2" y="9.78564453125" font-family="sans-serif" font-size="10" font-weight="normal" text-anchor="left" fill="#000000">TO</text><rect transform="translate(27 95) scale(1) translate(544.1705828898051 248.7088784384291) rotate(294.47657531280987) translate(0 -13) translate(0 14) translate(-43.4423828125 0)" x="0" y="0" width="86.884765625" height="12" rx="0" ry="0" fill="white" stroke="none"></rect><text xml:space="preserve" transform="translate(27 95) scale(1) translate(544.1705828898051 248.7088784384291) rotate(294.47657531280987) translate(0 -13) translate(0 14) translate(-43.4423828125 0)" x="38.349609375" y="8.78564453125" font-family="sans-serif" font-size="10" font-weight="normal" text-anchor="end" fill="#000000">at_time:</text><text xml:space="preserve" transform="translate(27 95) scale(1) translate(544.1705828898051 248.7088784384291) rotate(294.47657531280987) translate(0 -13) translate(0 14) translate(-43.4423828125 0)" x="41.1279296875" y="8.78564453125" font-family="sans-serif" font-size="10" font-weight="normal" text-anchor="start" fill="#000000">DateTime</text><path transform="translate(27 95) scale(1) translate(956.1221524699366 458.4448782497094) rotate(90)" d="M 27 0 L 94.29675152253735 0" fill="none" stroke="#A5ABB6" stroke-width="1"></path><polygon transform="translate(27 95) scale(1) translate(956.1221524699366 458.4448782497094) rotate(90) translate(103.74675152253735 0) rotate(0)" points="-9.45,0 -10.5,3.5 0,0 -10.5,-3.5" fill="undefined" stroke="none" stroke-width="1"></polygon><rect transform="translate(27 95) scale(1) translate(956.1221524699366 519.0932540109781) rotate(270) translate(0 -7) translate(0 0) translate(-29.78564453125 0)" x="0" y="0" width="59.5712890625" height="14" rx="2" ry="2" fill="#ffffff" stroke="none"></rect><text xml:space="preserve" transform="translate(27 95) scale(1) translate(956.1221524699366 519.0932540109781) rotate(270) translate(0 -7) translate(0 0) translate(-29.78564453125 0)" x="2" y="9.78564453125" font-family="sans-serif" font-size="10" font-weight="normal" text-anchor="left" fill="#000000">USES_BOM</text><path transform="translate(27 95) scale(1) translate(1207.4287662443462 458.4448782497094) rotate(152.51348952819706)" d="M 27 0 L 246.83382791902608 0" fill="none" stroke="#A5ABB6" stroke-width="1"></path><polygon transform="translate(27 95) scale(1) translate(1207.4287662443462 458.4448782497094) rotate(152.51348952819706) translate(256.28382791902607 0) rotate(0)" points="-9.45,0 -10.5,3.5 0,0 -10.5,-3.5" fill="undefined" stroke="none" stroke-width="1"></polygon><rect transform="translate(27 95) scale(1) translate(1085.9670990945976 521.6374786187429) rotate(332.51348952819706) translate(0 -7) translate(0 0) translate(-26.45068359375 0)" x="0" y="0" width="52.9013671875" height="14" rx="2" ry="2" fill="#ffffff" stroke="none"></rect><text xml:space="preserve" transform="translate(27 95) scale(1) translate(1085.9670990945976 521.6374786187429) rotate(332.51348952819706) translate(0 -7) translate(0 0) translate(-26.45068359375 0)" x="2" y="9.78564453125" font-family="sans-serif" font-size="10" font-weight="normal" text-anchor="left" fill="#000000">USE_BOM</text><path transform="translate(27 95) scale(1) translate(1207.4287662443462 -4) rotate(90)" d="M 27 0 L 232.35279888974804 0" fill="none" stroke="#A5ABB6" stroke-width="1"></path><polygon transform="translate(27 95) scale(1) translate(1207.4287662443462 -4) rotate(90) translate(241.80279888974803 0) rotate(0)" points="-9.45,0 -10.5,3.5 0,0 -10.5,-3.5" fill="undefined" stroke="none" stroke-width="1"></polygon><rect transform="translate(27 95) scale(1) translate(1207.4287662443462 125.67639944487402) rotate(270) translate(0 -13) translate(0 0) translate(-28.95068359375 0)" x="0" y="0" width="57.9013671875" height="14" rx="2" ry="2" fill="#ffffff" stroke="none"></rect><text xml:space="preserve" transform="translate(27 95) scale(1) translate(1207.4287662443462 125.67639944487402) rotate(270) translate(0 -13) translate(0 0) translate(-28.95068359375 0)" x="2" y="9.78564453125" font-family="sans-serif" font-size="10" font-weight="normal" text-anchor="left" fill="#000000">EXECUTES</text><rect transform="translate(27 95) scale(1) translate(1207.4287662443462 125.67639944487402) rotate(270) translate(0 -13) translate(0 14) translate(-43.4423828125 0)" x="0" y="0" width="86.884765625" height="12" rx="0" ry="0" fill="white" stroke="none"></rect><text xml:space="preserve" transform="translate(27 95) scale(1) translate(1207.4287662443462 125.67639944487402) rotate(270) translate(0 -13) translate(0 14) translate(-43.4423828125 0)" x="38.349609375" y="8.78564453125" font-family="sans-serif" font-size="10" font-weight="normal" text-anchor="end" fill="#000000">at_time:</text><text xml:space="preserve" transform="translate(27 95) scale(1) translate(1207.4287662443462 125.67639944487402) rotate(270) translate(0 -13) translate(0 14) translate(-43.4423828125 0)" x="41.1279296875" y="8.78564453125" font-family="sans-serif" font-size="10" font-weight="normal" text-anchor="start" fill="#000000">DateTime</text><path transform="translate(27 95) scale(1) translate(956.1221524699366 264.80279888974803) rotate(90)" d="M 27 0 L 157.19207935996138 0" fill="none" stroke="#A5ABB6" stroke-width="1"></path><polygon transform="translate(27 95) scale(1) translate(956.1221524699366 264.80279888974803) rotate(90) translate(166.64207935996137 0) rotate(0)" points="-9.45,0 -10.5,3.5 0,0 -10.5,-3.5" fill="undefined" stroke="none" stroke-width="1"></polygon><rect transform="translate(27 95) scale(1) translate(956.1221524699366 356.8988385697287) rotate(270) translate(0 -7) translate(0 0) translate(-35.0615234375 0)" x="0" y="0" width="70.123046875" height="14" rx="2" ry="2" fill="#ffffff" stroke="none"></rect><text xml:space="preserve" transform="translate(27 95) scale(1) translate(956.1221524699366 356.8988385697287) rotate(270) translate(0 -7) translate(0 0) translate(-35.0615234375 0)" x="2" y="9.78564453125" font-family="sans-serif" font-size="10" font-weight="normal" text-anchor="left" fill="#000000">USES_CRAFT</text><path transform="translate(27 95) scale(1) translate(956.1221524699366 264.80279888974803) rotate(137.6462735854297)" d="M 27 0 L 445.0492605261175 0" fill="none" stroke="#A5ABB6" stroke-width="1"></path><polygon transform="translate(27 95) scale(1) translate(956.1221524699366 264.80279888974803) rotate(137.6462735854297) translate(454.4992605261175 0) rotate(0)" points="-9.45,0 -10.5,3.5 0,0 -10.5,-3.5" fill="undefined" stroke="none" stroke-width="1"></polygon><rect transform="translate(27 95) scale(1) translate(781.700025251785 423.81395455974655) rotate(317.6462735854297) translate(0 -13) translate(0 0) translate(-39.783203125 0)" x="0" y="0" width="79.56640625" height="14" rx="2" ry="2" fill="#ffffff" stroke="none"></rect><text xml:space="preserve" transform="translate(27 95) scale(1) translate(781.700025251785 423.81395455974655) rotate(317.6462735854297) translate(0 -13) translate(0 0) translate(-39.783203125 0)" x="2" y="9.78564453125" font-family="sans-serif" font-size="10" font-weight="normal" text-anchor="left" fill="#000000">HAS_PRODUCT</text><rect transform="translate(27 95) scale(1) translate(781.700025251785 423.81395455974655) rotate(317.6462735854297) translate(0 -13) translate(0 14) translate(-37.80029296875 0)" x="0" y="0" width="75.6005859375" height="12" rx="0" ry="0" fill="white" stroke="none"></rect><text xml:space="preserve" transform="translate(27 95) scale(1) translate(781.700025251785 423.81395455974655) rotate(317.6462735854297) translate(0 -13) translate(0 14) translate(-37.80029296875 0)" x="38.9111328125" y="8.78564453125" font-family="sans-serif" font-size="10" font-weight="normal" text-anchor="end" fill="#000000">amount:</text><text xml:space="preserve" transform="translate(27 95) scale(1) translate(781.700025251785 423.81395455974655) rotate(317.6462735854297) translate(0 -13) translate(0 14) translate(-37.80029296875 0)" x="41.689453125" y="8.78564453125" font-family="sans-serif" font-size="10" font-weight="normal" text-anchor="start" fill="#000000">Integer</text><path transform="translate(27 95) scale(1) translate(1207.4287662443462 264.80279888974803) rotate(90)" d="M 27 0 L 157.19207935996138 0" fill="none" stroke="#A5ABB6" stroke-width="1"></path><polygon transform="translate(27 95) scale(1) translate(1207.4287662443462 264.80279888974803) rotate(90) translate(166.64207935996137 0) rotate(0)" points="-9.45,0 -10.5,3.5 0,0 -10.5,-3.5" fill="undefined" stroke="none" stroke-width="1"></polygon><rect transform="translate(27 95) scale(1) translate(1207.4287662443462 356.8988385697287) rotate(270) translate(0 -7) translate(0 0) translate(-50.3447265625 0)" x="0" y="0" width="100.689453125" height="14" rx="2" ry="2" fill="#ffffff" stroke="none"></rect><text xml:space="preserve" transform="translate(27 95) scale(1) translate(1207.4287662443462 356.8988385697287) rotate(270) translate(0 -7) translate(0 0) translate(-50.3447265625 0)" x="2" y="9.78564453125" font-family="sans-serif" font-size="10" font-weight="normal" text-anchor="left" fill="#000000">USES_PROCEDURE</text><path transform="translate(27 95) scale(1) translate(600.2943510183305 589.1916297722468) rotate(-111.97634842824688)" d="M 27 0 L 214.85661377440957 0" fill="none" stroke="#A5ABB6" stroke-width="1"></path><polygon transform="translate(27 95) scale(1) translate(600.2943510183305 589.1916297722468) rotate(-111.97634842824688) translate(224.30661377440956 0) rotate(0)" points="-9.45,0 -10.5,3.5 0,0 -10.5,-3.5" fill="undefined" stroke="none" stroke-width="1"></polygon><rect transform="translate(27 95) scale(1) translate(555.0400978204547 477.0501656561201) rotate(68.02365157175312) translate(0 -13) translate(0 0) translate(-39.978515625 0)" x="0" y="0" width="79.95703125" height="14" rx="2" ry="2" fill="#ffffff" stroke="none"></rect><text xml:space="preserve" transform="translate(27 95) scale(1) translate(555.0400978204547 477.0501656561201) rotate(68.02365157175312) translate(0 -13) translate(0 0) translate(-39.978515625 0)" x="2" y="9.78564453125" font-family="sans-serif" font-size="10" font-weight="normal" text-anchor="left" fill="#000000">HAS_STOCK_IN</text><rect transform="translate(27 95) scale(1) translate(555.0400978204547 477.0501656561201) rotate(68.02365157175312) translate(0 -13) translate(0 14) translate(-37.80029296875 0)" x="0" y="0" width="75.6005859375" height="12" rx="0" ry="0" fill="white" stroke="none"></rect><text xml:space="preserve" transform="translate(27 95) scale(1) translate(555.0400978204547 477.0501656561201) rotate(68.02365157175312) translate(0 -13) translate(0 14) translate(-37.80029296875 0)" x="38.9111328125" y="8.78564453125" font-family="sans-serif" font-size="10" font-weight="normal" text-anchor="end" fill="#000000">amount:</text><text xml:space="preserve" transform="translate(27 95) scale(1) translate(555.0400978204547 477.0501656561201) rotate(68.02365157175312) translate(0 -13) translate(0 14) translate(-37.80029296875 0)" x="41.689453125" y="8.78564453125" font-family="sans-serif" font-size="10" font-weight="normal" text-anchor="start" fill="#000000">Integer</text><path transform="translate(27 95) scale(1) translate(600.2943510183305 149.5588269602626) rotate(-9.264860596753957)" d="M 27 0 L 917.3401012505205 0" fill="none" stroke="#A5ABB6" stroke-width="1"></path><polygon transform="translate(27 95) scale(1) translate(600.2943510183305 149.5588269602626) rotate(-9.264860596753957) translate(926.7901012505206 0) rotate(0)" points="-9.45,0 -10.5,3.5 0,0 -10.5,-3.5" fill="undefined" stroke="none" stroke-width="1"></polygon><rect transform="translate(27 95) scale(1) translate(1066.3047743677746 73.54013164698577) rotate(-9.264860596753957) translate(0 -13) translate(0 0) translate(-8.85546875 0)" x="0" y="0" width="17.7109375" height="14" rx="2" ry="2" fill="#ffffff" stroke="none"></rect><text xml:space="preserve" transform="translate(27 95) scale(1) translate(1066.3047743677746 73.54013164698577) rotate(-9.264860596753957) translate(0 -13) translate(0 0) translate(-8.85546875 0)" x="2" y="9.78564453125" font-family="sans-serif" font-size="10" font-weight="normal" text-anchor="left" fill="#000000">TO</text><rect transform="translate(27 95) scale(1) translate(1066.3047743677746 73.54013164698577) rotate(-9.264860596753957) translate(0 -13) translate(0 14) translate(-43.4423828125 0)" x="0" y="0" width="86.884765625" height="12" rx="0" ry="0" fill="white" stroke="none"></rect><text xml:space="preserve" transform="translate(27 95) scale(1) translate(1066.3047743677746 73.54013164698577) rotate(-9.264860596753957) translate(0 -13) translate(0 14) translate(-43.4423828125 0)" x="38.349609375" y="8.78564453125" font-family="sans-serif" font-size="10" font-weight="normal" text-anchor="end" fill="#000000">at_time:</text><text xml:space="preserve" transform="translate(27 95) scale(1) translate(1066.3047743677746 73.54013164698577) rotate(-9.264860596753957) translate(0 -13) translate(0 14) translate(-43.4423828125 0)" x="41.1279296875" y="8.78564453125" font-family="sans-serif" font-size="10" font-weight="normal" text-anchor="start" fill="#000000">DateTime</text><path transform="translate(27 95) scale(1) translate(1541.641919085549 149.5588269602626) rotate(180)" d="M 27 0 L 904.8975680672185 0" fill="none" stroke="#A5ABB6" stroke-width="1"></path><polygon transform="translate(27 95) scale(1) translate(1541.641919085549 149.5588269602626) rotate(180) translate(914.3475680672185 0) rotate(0)" points="-9.45,0 -10.5,3.5 0,0 -10.5,-3.5" fill="undefined" stroke="none" stroke-width="1"></polygon><rect transform="translate(27 95) scale(1) translate(1075.6931350519399 149.55882696026265) rotate(360) translate(0 -13) translate(0 0) translate(-46.1650390625 0)" x="0" y="0" width="92.330078125" height="14" rx="2" ry="2" fill="#ffffff" stroke="none"></rect><text xml:space="preserve" transform="translate(27 95) scale(1) translate(1075.6931350519399 149.55882696026265) rotate(360) translate(0 -13) translate(0 0) translate(-46.1650390625 0)" x="2" y="9.78564453125" font-family="sans-serif" font-size="10" font-weight="normal" text-anchor="left" fill="#000000">OUTBOUND_WITH</text><rect transform="translate(27 95) scale(1) translate(1075.6931350519399 149.55882696026265) rotate(360) translate(0 -13) translate(0 14) translate(-43.4423828125 0)" x="0" y="0" width="86.884765625" height="12" rx="0" ry="0" fill="white" stroke="none"></rect><text xml:space="preserve" transform="translate(27 95) scale(1) translate(1075.6931350519399 149.55882696026265) rotate(360) translate(0 -13) translate(0 14) translate(-43.4423828125 0)" x="38.349609375" y="8.78564453125" font-family="sans-serif" font-size="10" font-weight="normal" text-anchor="end" fill="#000000">at_time:</text><text xml:space="preserve" transform="translate(27 95) scale(1) translate(1075.6931350519399 149.55882696026265) rotate(360) translate(0 -13) translate(0 14) translate(-43.4423828125 0)" x="41.1279296875" y="8.78564453125" font-family="sans-serif" font-size="10" font-weight="normal" text-anchor="start" fill="#000000">DateTime</text><path transform="translate(27 95) scale(1) translate(956.1221524699366 264.80279888974803) rotate(-162.05412211727352)" d="M 26.33607230551508 -5.950739073315302 L 39.90372445553387 -9.016403415577901 A 40 40 0 0 1 48.71963419377876 -10 L 187.0124309718258 -10 L 325.30522774987287 -10 A 40 40 0 0 1 334.1211374881178 -9.01640341557789 L 338.47116433120624 -8.033497748975657 L 338.47116433120624 -8.033497748975657" fill="none" stroke="#A5ABB6" stroke-width="1"></path><polygon transform="translate(27 95) scale(1) translate(956.1221524699366 264.80279888974803) rotate(-162.05412211727352) translate(374.0248619436516 0) rotate(12.732395447351628) translate(-27 0)" points="-9.45,0 -10.5,3.5 0,0 -10.5,-3.5" fill="#A5ABB6" stroke="none" stroke-width="1"></polygon><rect transform="translate(27 95) scale(1) translate(775.1270669445294 216.69429284723603) rotate(17.945877882726474) translate(0 -13) translate(0 0) translate(-46.1650390625 0)" x="0" y="0" width="92.330078125" height="14" rx="2" ry="2" fill="#ffffff" stroke="none"></rect><text xml:space="preserve" transform="translate(27 95) scale(1) translate(775.1270669445294 216.69429284723603) rotate(17.945877882726474) translate(0 -13) translate(0 0) translate(-46.1650390625 0)" x="2" y="9.78564453125" font-family="sans-serif" font-size="10" font-weight="normal" text-anchor="left" fill="#000000">OUTBOUND_WITH</text><rect transform="translate(27 95) scale(1) translate(775.1270669445294 216.69429284723603) rotate(17.945877882726474) translate(0 -13) translate(0 14) translate(-43.4423828125 0)" x="0" y="0" width="86.884765625" height="12" rx="0" ry="0" fill="white" stroke="none"></rect><text xml:space="preserve" transform="translate(27 95) scale(1) translate(775.1270669445294 216.69429284723603) rotate(17.945877882726474) translate(0 -13) translate(0 14) translate(-43.4423828125 0)" x="38.349609375" y="8.78564453125" font-family="sans-serif" font-size="10" font-weight="normal" text-anchor="end" fill="#000000">at_time:</text><text xml:space="preserve" transform="translate(27 95) scale(1) translate(775.1270669445294 216.69429284723603) rotate(17.945877882726474) translate(0 -13) translate(0 14) translate(-43.4423828125 0)" x="41.1279296875" y="8.78564453125" font-family="sans-serif" font-size="10" font-weight="normal" text-anchor="start" fill="#000000">DateTime</text><path transform="translate(27 95) scale(1) translate(956.1221524699366 264.80279888974803) rotate(-162.05412211727352)" d="M 26.33607230551508 5.950739073315302 L 39.90372445553387 9.016403415577901 A 40 40 0 0 0 48.71963419377876 10 L 187.0124309718258 10 L 325.30522774987287 10 A 40 40 0 0 0 334.1211374881178 9.01640341557789 L 338.47116433120624 8.033497748975657 L 338.47116433120624 8.033497748975657" fill="none" stroke="#A5ABB6" stroke-width="1"></path><polygon transform="translate(27 95) scale(1) translate(956.1221524699366 264.80279888974803) rotate(-162.05412211727352) translate(374.0248619436516 0) rotate(-12.732395447351628) translate(-27 0)" points="-9.45,0 -10.5,3.5 0,0 -10.5,-3.5" fill="#A5ABB6" stroke="none" stroke-width="1"></polygon><rect transform="translate(27 95) scale(1) translate(781.2894365437378 197.6673330027745) rotate(17.945877882726474) translate(0 -13) translate(0 0) translate(-40.61083984375 0)" x="0" y="0" width="81.2216796875" height="14" rx="2" ry="2" fill="#ffffff" stroke="none"></rect><text xml:space="preserve" transform="translate(27 95) scale(1) translate(781.2894365437378 197.6673330027745) rotate(17.945877882726474) translate(0 -13) translate(0 0) translate(-40.61083984375 0)" x="2" y="9.78564453125" font-family="sans-serif" font-size="10" font-weight="normal" text-anchor="left" fill="#000000">INBOUND_WITH</text><rect transform="translate(27 95) scale(1) translate(781.2894365437378 197.6673330027745) rotate(17.945877882726474) translate(0 -13) translate(0 14) translate(-43.4423828125 0)" x="0" y="0" width="86.884765625" height="12" rx="0" ry="0" fill="white" stroke="none"></rect><text xml:space="preserve" transform="translate(27 95) scale(1) translate(781.2894365437378 197.6673330027745) rotate(17.945877882726474) translate(0 -13) translate(0 14) translate(-43.4423828125 0)" x="38.349609375" y="8.78564453125" font-family="sans-serif" font-size="10" font-weight="normal" text-anchor="end" fill="#000000">at_time:</text><text xml:space="preserve" transform="translate(27 95) scale(1) translate(781.2894365437378 197.6673330027745) rotate(17.945877882726474) translate(0 -13) translate(0 14) translate(-43.4423828125 0)" x="41.1279296875" y="8.78564453125" font-family="sans-serif" font-size="10" font-weight="normal" text-anchor="start" fill="#000000">DateTime</text><path transform="translate(27 95) scale(1) translate(600.2943510183305 149.5588269602626) rotate(65.52342468719016)" d="M 27 0 L 190.5355507037182 0" fill="none" stroke="#A5ABB6" stroke-width="1"></path><polygon transform="translate(27 95) scale(1) translate(600.2943510183305 149.5588269602626) rotate(65.52342468719016) translate(199.9855507037182 0) rotate(0)" points="-9.45,0 -10.5,3.5 0,0 -10.5,-3.5" fill="undefined" stroke="none" stroke-width="1"></polygon><rect transform="translate(27 95) scale(1) translate(645.3591441935918 248.55172251879964) rotate(65.52342468719016) translate(0 -13) translate(0 0) translate(-16.71923828125 0)" x="0" y="0" width="33.4384765625" height="14" rx="2" ry="2" fill="#ffffff" stroke="none"></rect><text xml:space="preserve" transform="translate(27 95) scale(1) translate(645.3591441935918 248.55172251879964) rotate(65.52342468719016) translate(0 -13) translate(0 0) translate(-16.71923828125 0)" x="2" y="9.78564453125" font-family="sans-serif" font-size="10" font-weight="normal" text-anchor="left" fill="#000000">FROM</text><rect transform="translate(27 95) scale(1) translate(645.3591441935918 248.55172251879964) rotate(65.52342468719016) translate(0 -13) translate(0 14) translate(-43.4423828125 0)" x="0" y="0" width="86.884765625" height="12" rx="0" ry="0" fill="white" stroke="none"></rect><text xml:space="preserve" transform="translate(27 95) scale(1) translate(645.3591441935918 248.55172251879964) rotate(65.52342468719016) translate(0 -13) translate(0 14) translate(-43.4423828125 0)" x="38.349609375" y="8.78564453125" font-family="sans-serif" font-size="10" font-weight="normal" text-anchor="end" fill="#000000">at_time:</text><text xml:space="preserve" transform="translate(27 95) scale(1) translate(645.3591441935918 248.55172251879964) rotate(65.52342468719016) translate(0 -13) translate(0 14) translate(-43.4423828125 0)" x="41.1279296875" y="8.78564453125" font-family="sans-serif" font-size="10" font-weight="normal" text-anchor="start" fill="#000000">DateTime</text><path transform="translate(27 95) scale(1) translate(600.2943510183305 589.1916297722468) rotate(-68.02365157175312)" d="M 27 0 L 214.85661377440957 0" fill="none" stroke="#A5ABB6" stroke-width="1"></path><polygon transform="translate(27 95) scale(1) translate(600.2943510183305 589.1916297722468) rotate(-68.02365157175312) translate(224.30661377440956 0) rotate(0)" points="-9.45,0 -10.5,3.5 0,0 -10.5,-3.5" fill="undefined" stroke="none" stroke-width="1"></polygon><rect transform="translate(27 95) scale(1) translate(645.5486042162064 477.0501656561201) rotate(-68.02365157175312) translate(0 -13) translate(0 0) translate(-39.978515625 0)" x="0" y="0" width="79.95703125" height="14" rx="2" ry="2" fill="#ffffff" stroke="none"></rect><text xml:space="preserve" transform="translate(27 95) scale(1) translate(645.5486042162064 477.0501656561201) rotate(-68.02365157175312) translate(0 -13) translate(0 0) translate(-39.978515625 0)" x="2" y="9.78564453125" font-family="sans-serif" font-size="10" font-weight="normal" text-anchor="left" fill="#000000">HAS_STOCK_IN</text><rect transform="translate(27 95) scale(1) translate(645.5486042162064 477.0501656561201) rotate(-68.02365157175312) translate(0 -13) translate(0 14) translate(-37.80029296875 0)" x="0" y="0" width="75.6005859375" height="12" rx="0" ry="0" fill="white" stroke="none"></rect><text xml:space="preserve" transform="translate(27 95) scale(1) translate(645.5486042162064 477.0501656561201) rotate(-68.02365157175312) translate(0 -13) translate(0 14) translate(-37.80029296875 0)" x="38.9111328125" y="8.78564453125" font-family="sans-serif" font-size="10" font-weight="normal" text-anchor="end" fill="#000000">amount:</text><text xml:space="preserve" transform="translate(27 95) scale(1) translate(645.5486042162064 477.0501656561201) rotate(-68.02365157175312) translate(0 -13) translate(0 14) translate(-37.80029296875 0)" x="41.689453125" y="8.78564453125" font-family="sans-serif" font-size="10" font-weight="normal" text-anchor="start" fill="#000000">Integer</text><path transform="translate(27 95) scale(1) translate(129 -4) rotate(90)" d="M 27 0 L 117.10882696026259 0" fill="none" stroke="#A5ABB6" stroke-width="1"></path><polygon transform="translate(27 95) scale(1) translate(129 -4) rotate(90) translate(126.55882696026259 0) rotate(0)" points="-9.45,0 -10.5,3.5 0,0 -10.5,-3.5" fill="undefined" stroke="none" stroke-width="1"></polygon><rect transform="translate(27 95) scale(1) translate(129 68.0544134801313) rotate(270) translate(0 -7) translate(0 0) translate(-33.1181640625 0)" x="0" y="0" width="66.236328125" height="14" rx="2" ry="2" fill="#ffffff" stroke="none"></rect><text xml:space="preserve" transform="translate(27 95) scale(1) translate(129 68.0544134801313) rotate(270) translate(0 -7) translate(0 0) translate(-33.1181640625 0)" x="2" y="9.78564453125" font-family="sans-serif" font-size="10" font-weight="normal" text-anchor="left" fill="#000000">HAS_ORDER</text><path transform="translate(27 95) scale(1) translate(600.2943510183305 149.5588269602626) rotate(-161.9531675397991)" d="M 27 0 L 459.2300163807305 0" fill="none" stroke="#A5ABB6" stroke-width="1"></path><polygon transform="translate(27 95) scale(1) translate(600.2943510183305 149.5588269602626) rotate(-161.9531675397991) translate(468.6800163807305 0) rotate(0)" points="-9.45,0 -10.5,3.5 0,0 -10.5,-3.5" fill="undefined" stroke="none" stroke-width="1"></polygon><rect transform="translate(27 95) scale(1) translate(369.13972258584863 74.24319138807493) rotate(18.04683246020091) translate(0 -13) translate(0 0) translate(-16.71923828125 0)" x="0" y="0" width="33.4384765625" height="14" rx="2" ry="2" fill="#ffffff" stroke="none"></rect><text xml:space="preserve" transform="translate(27 95) scale(1) translate(369.13972258584863 74.24319138807493) rotate(18.04683246020091) translate(0 -13) translate(0 0) translate(-16.71923828125 0)" x="2" y="9.78564453125" font-family="sans-serif" font-size="10" font-weight="normal" text-anchor="left" fill="#000000">FROM</text><rect transform="translate(27 95) scale(1) translate(369.13972258584863 74.24319138807493) rotate(18.04683246020091) translate(0 -13) translate(0 14) translate(-43.4423828125 0)" x="0" y="0" width="86.884765625" height="12" rx="0" ry="0" fill="white" stroke="none"></rect><text xml:space="preserve" transform="translate(27 95) scale(1) translate(369.13972258584863 74.24319138807493) rotate(18.04683246020091) translate(0 -13) translate(0 14) translate(-43.4423828125 0)" x="38.349609375" y="8.78564453125" font-family="sans-serif" font-size="10" font-weight="normal" text-anchor="end" fill="#000000">at_time:</text><text xml:space="preserve" transform="translate(27 95) scale(1) translate(369.13972258584863 74.24319138807493) rotate(18.04683246020091) translate(0 -13) translate(0 14) translate(-43.4423828125 0)" x="41.1279296875" y="8.78564453125" font-family="sans-serif" font-size="10" font-weight="normal" text-anchor="start" fill="#000000">DateTime</text><path transform="translate(27 95) scale(1) translate(129 149.5588269602626) rotate(43.00934345937884)" d="M 27 0 L 608.0617272867191 0" fill="none" stroke="#A5ABB6" stroke-width="1"></path><polygon transform="translate(27 95) scale(1) translate(129 149.5588269602626) rotate(43.00934345937884) translate(617.5117272867192 0) rotate(0)" points="-9.45,0 -10.5,3.5 0,0 -10.5,-3.5" fill="undefined" stroke="none" stroke-width="1"></polygon><rect transform="translate(27 95) scale(1) translate(361.19205481192625 366.1522226313062) rotate(43.00934345937884) translate(0 -13) translate(0 0) translate(-39.69775390625 0)" x="0" y="0" width="79.3955078125" height="14" rx="2" ry="2" fill="#ffffff" stroke="none"></rect><text xml:space="preserve" transform="translate(27 95) scale(1) translate(361.19205481192625 366.1522226313062) rotate(43.00934345937884) translate(0 -13) translate(0 0) translate(-39.69775390625 0)" x="2" y="9.78564453125" font-family="sans-serif" font-size="10" font-weight="normal" text-anchor="left" fill="#000000">HAS_MATERIAL</text><rect transform="translate(27 95) scale(1) translate(361.19205481192625 366.1522226313062) rotate(43.00934345937884) translate(0 -13) translate(0 14) translate(-37.80029296875 0)" x="0" y="0" width="75.6005859375" height="12" rx="0" ry="0" fill="white" stroke="none"></rect><text xml:space="preserve" transform="translate(27 95) scale(1) translate(361.19205481192625 366.1522226313062) rotate(43.00934345937884) translate(0 -13) translate(0 14) translate(-37.80029296875 0)" x="38.9111328125" y="8.78564453125" font-family="sans-serif" font-size="10" font-weight="normal" text-anchor="end" fill="#000000">amount:</text><text xml:space="preserve" transform="translate(27 95) scale(1) translate(361.19205481192625 366.1522226313062) rotate(43.00934345937884) translate(0 -13) translate(0 14) translate(-37.80029296875 0)" x="41.689453125" y="8.78564453125" font-family="sans-serif" font-size="10" font-weight="normal" text-anchor="start" fill="#000000">Integer</text><path transform="translate(27 95) scale(1) translate(129 149.5588269602626) rotate(0)" d="M 27 0 L 434.84435101833054 0" fill="none" stroke="#A5ABB6" stroke-width="1"></path><polygon transform="translate(27 95) scale(1) translate(129 149.5588269602626) rotate(0) translate(444.29435101833053 0) rotate(0)" points="-9.45,0 -10.5,3.5 0,0 -10.5,-3.5" fill="undefined" stroke="none" stroke-width="1"></polygon><rect transform="translate(27 95) scale(1) translate(359.9221755091653 149.5588269602626) rotate(0) translate(0 -7) translate(0 0) translate(-40.61083984375 0)" x="0" y="0" width="81.2216796875" height="14" rx="2" ry="2" fill="#ffffff" stroke="none"></rect><text xml:space="preserve" transform="translate(27 95) scale(1) translate(359.9221755091653 149.5588269602626) rotate(0) translate(0 -7) translate(0 0) translate(-40.61083984375 0)" x="2" y="9.78564453125" font-family="sans-serif" font-size="10" font-weight="normal" text-anchor="left" fill="#000000">INBOUND_WITH</text><path transform="translate(27 95) scale(1) translate(1207.4287662443462 458.4448782497094) rotate(31.25674476409853)" d="M 26.33607230551508 -5.950739073315301 L 39.90372445553386 -9.016403415577901 A 40 40 0 0 1 48.71963419377876 -10 L 54 -10 L 98 -10 A 10 10 0 0 1 108 -1.7763568394002505e-15 L 108 0 L 108 1.7763568394002505e-15 A 10 10 0 0 1 98 10 L 54 10 L 48.71963419377877 10 A 40 40 0 0 0 39.90372445553386 9.0164034155779 L 35.55369761244536 8.033497748975657 L 35.55369761244536 8.033497748975657" fill="none" stroke="#A5ABB6" stroke-width="1"></path><polygon transform="translate(27 95) scale(1) translate(1207.4287662443462 458.4448782497094) rotate(31.25674476409853) rotate(192.73239544735162) translate(-27 0)" points="-9.45,0 -10.5,3.5 0,0 -10.5,-3.5" fill="#A5ABB6" stroke="none" stroke-width="1"></polygon><rect transform="translate(27 95) scale(1) translate(1291.2041442153388 509.29451980023873) rotate(301.2567447640985) translate(0 -13) translate(0 0) translate(-15.3349609375 0)" x="0" y="0" width="30.669921875" height="14" rx="2" ry="2" fill="#ffffff" stroke="none"></rect><text xml:space="preserve" transform="translate(27 95) scale(1) translate(1291.2041442153388 509.29451980023873) rotate(301.2567447640985) translate(0 -13) translate(0 0) translate(-15.3349609375 0)" x="2" y="9.78564453125" font-family="sans-serif" font-size="10" font-weight="normal" text-anchor="left" fill="#000000">NEXT</text><rect transform="translate(27 95) scale(1) translate(1291.2041442153388 509.29451980023873) rotate(301.2567447640985) translate(0 -13) translate(0 14) translate(-26.953125 0)" x="0" y="0" width="53.90625" height="12" rx="0" ry="0" fill="white" stroke="none"></rect><text xml:space="preserve" transform="translate(27 95) scale(1) translate(1291.2041442153388 509.29451980023873) rotate(301.2567447640985) translate(0 -13) translate(0 14) translate(-26.953125 0)" x="38.349609375" y="8.78564453125" font-family="sans-serif" font-size="10" font-weight="normal" text-anchor="end" fill="#000000">craft_id:</text><text xml:space="preserve" transform="translate(27 95) scale(1) translate(1291.2041442153388 509.29451980023873) rotate(301.2567447640985) translate(0 -13) translate(0 14) translate(-26.953125 0)" x="41.1279296875" y="8.78564453125" font-family="sans-serif" font-size="10" font-weight="normal" text-anchor="start" fill="#000000">ID</text><path transform="translate(27 95) scale(1) translate(1207.4287662443462 264.80279888974803) rotate(0)" d="M 26.33607230551508 -5.950739073315301 L 39.90372445553386 -9.016403415577901 A 40 40 0 0 1 48.71963419377876 -10 L 54 -10 L 98 -10 A 10 10 0 0 1 108 -1.7763568394002505e-15 L 108 0 L 108 1.7763568394002505e-15 A 10 10 0 0 1 98 10 L 54 10 L 48.71963419377877 10 A 40 40 0 0 0 39.90372445553386 9.0164034155779 L 35.55369761244536 8.033497748975657 L 35.55369761244536 8.033497748975657" fill="none" stroke="#A5ABB6" stroke-width="1"></path><polygon transform="translate(27 95) scale(1) translate(1207.4287662443462 264.80279888974803) rotate(0) rotate(192.73239544735162) translate(-27 0)" points="-9.45,0 -10.5,3.5 0,0 -10.5,-3.5" fill="#A5ABB6" stroke="none" stroke-width="1"></polygon><rect transform="translate(27 95) scale(1) translate(1305.4287662443462 264.80279888974803) rotate(270) translate(0 -13) translate(0 0) translate(-15.3349609375 0)" x="0" y="0" width="30.669921875" height="14" rx="2" ry="2" fill="#ffffff" stroke="none"></rect><text xml:space="preserve" transform="translate(27 95) scale(1) translate(1305.4287662443462 264.80279888974803) rotate(270) translate(0 -13) translate(0 0) translate(-15.3349609375 0)" x="2" y="9.78564453125" font-family="sans-serif" font-size="10" font-weight="normal" text-anchor="left" fill="#000000">NEXT</text><rect transform="translate(27 95) scale(1) translate(1305.4287662443462 264.80279888974803) rotate(270) translate(0 -13) translate(0 14) translate(-42.23876953125 0)" x="0" y="0" width="84.4775390625" height="12" rx="0" ry="0" fill="white" stroke="none"></rect><text xml:space="preserve" transform="translate(27 95) scale(1) translate(1305.4287662443462 264.80279888974803) rotate(270) translate(0 -13) translate(0 14) translate(-42.23876953125 0)" x="68.9208984375" y="8.78564453125" font-family="sans-serif" font-size="10" font-weight="normal" text-anchor="end" fill="#000000">work_order_id:</text><text xml:space="preserve" transform="translate(27 95) scale(1) translate(1305.4287662443462 264.80279888974803) rotate(270) translate(0 -13) translate(0 14) translate(-42.23876953125 0)" x="71.69921875" y="8.78564453125" font-family="sans-serif" font-size="10" font-weight="normal" text-anchor="start" fill="#000000">ID</text><circle transform="translate(27 95) scale(1)" cx="0" cy="0" r="26" fill="#4C8EDA" stroke="#2870c2" strokewidth="2"></circle><circle transform="translate(27 95) scale(1)" cx="600.2943510183305" cy="589.1916297722468" r="26" fill="#f44e3b" stroke="#4d4d4d" strokewidth="2"></circle><rect transform="translate(27 95) scale(1) translate(600.2943510183305 589.1916297722468) translate(1.6532731788489269e-15 27) translate(0 0) translate(-24.783203125 0)" x="0" y="0" width="49.56640625" height="14" rx="7" ry="7" fill="#4C8EDA" stroke="none"></rect><text xml:space="preserve" transform="translate(27 95) scale(1) translate(600.2943510183305 589.1916297722468) translate(1.6532731788489269e-15 27) translate(0 0) translate(-24.783203125 0)" x="7" y="9.78564453125" font-family="sans-serif" font-size="10" font-weight="normal" text-anchor="undefined" fill="#ffffff">Material</text><rect transform="translate(27 95) scale(1) translate(600.2943510183305 589.1916297722468) translate(1.6532731788489269e-15 27) translate(0 16) translate(-31.12548828125 0)" x="0" y="0" width="62.2509765625" height="24" rx="0" ry="0" fill="white" stroke="none"></rect><text xml:space="preserve" transform="translate(27 95) scale(1) translate(600.2943510183305 589.1916297722468) translate(1.6532731788489269e-15 27) translate(0 16) translate(-31.12548828125 0)" x="30.5712890625" y="8.78564453125" font-family="sans-serif" font-size="10" font-weight="normal" text-anchor="end" fill="#000000">id:</text><text xml:space="preserve" transform="translate(27 95) scale(1) translate(600.2943510183305 589.1916297722468) translate(1.6532731788489269e-15 27) translate(0 16) translate(-31.12548828125 0)" x="33.349609375" y="8.78564453125" font-family="sans-serif" font-size="10" font-weight="normal" text-anchor="start" fill="#000000">ID</text><text xml:space="preserve" transform="translate(27 95) scale(1) translate(600.2943510183305 589.1916297722468) translate(1.6532731788489269e-15 27) translate(0 16) translate(-31.12548828125 0)" x="30.5712890625" y="20.78564453125" font-family="sans-serif" font-size="10" font-weight="normal" text-anchor="end" fill="#000000">name:</text><text xml:space="preserve" transform="translate(27 95) scale(1) translate(600.2943510183305 589.1916297722468) translate(1.6532731788489269e-15 27) translate(0 16) translate(-31.12548828125 0)" x="33.349609375" y="20.78564453125" font-family="sans-serif" font-size="10" font-weight="normal" text-anchor="start" fill="#000000">String</text><circle transform="translate(27 95) scale(1)" cx="956.1221524699366" cy="589.1916297722468" r="26" fill="#653294" stroke="#4d4d4d" strokewidth="2"></circle><rect transform="translate(27 95) scale(1) translate(956.1221524699366 589.1916297722468) translate(1.6532731788489269e-15 27) translate(0 0) translate(-18.38916015625 0)" x="0" y="0" width="36.7783203125" height="14" rx="7" ry="7" fill="#4C8EDA" stroke="none"></rect><text xml:space="preserve" transform="translate(27 95) scale(1) translate(956.1221524699366 589.1916297722468) translate(1.6532731788489269e-15 27) translate(0 0) translate(-18.38916015625 0)" x="7" y="9.78564453125" font-family="sans-serif" font-size="10" font-weight="normal" text-anchor="undefined" fill="#ffffff">BOM</text><rect transform="translate(27 95) scale(1) translate(956.1221524699366 589.1916297722468) translate(1.6532731788489269e-15 27) translate(0 16) translate(-31.12548828125 0)" x="0" y="0" width="62.2509765625" height="24" rx="0" ry="0" fill="white" stroke="none"></rect><text xml:space="preserve" transform="translate(27 95) scale(1) translate(956.1221524699366 589.1916297722468) translate(1.6532731788489269e-15 27) translate(0 16) translate(-31.12548828125 0)" x="30.5712890625" y="8.78564453125" font-family="sans-serif" font-size="10" font-weight="normal" text-anchor="end" fill="#000000">id:</text><text xml:space="preserve" transform="translate(27 95) scale(1) translate(956.1221524699366 589.1916297722468) translate(1.6532731788489269e-15 27) translate(0 16) translate(-31.12548828125 0)" x="33.349609375" y="8.78564453125" font-family="sans-serif" font-size="10" font-weight="normal" text-anchor="start" fill="#000000">ID</text><text xml:space="preserve" transform="translate(27 95) scale(1) translate(956.1221524699366 589.1916297722468) translate(1.6532731788489269e-15 27) translate(0 16) translate(-31.12548828125 0)" x="30.5712890625" y="20.78564453125" font-family="sans-serif" font-size="10" font-weight="normal" text-anchor="end" fill="#000000">name:</text><text xml:space="preserve" transform="translate(27 95) scale(1) translate(956.1221524699366 589.1916297722468) translate(1.6532731788489269e-15 27) translate(0 16) translate(-31.12548828125 0)" x="33.349609375" y="20.78564453125" font-family="sans-serif" font-size="10" font-weight="normal" text-anchor="start" fill="#000000">String</text><circle transform="translate(27 95) scale(1)" cx="956.1221524699366" cy="458.4448782497094" r="26" fill="#653294" stroke="#4d4d4d" strokewidth="2"></circle><rect transform="translate(27 95) scale(1) translate(956.1221524699366 458.4448782497094) translate(-19.09188309203678 -59.09188309203678) translate(0 0) translate(-35.669921875 0)" x="0" y="0" width="35.669921875" height="14" rx="7" ry="7" fill="#4C8EDA" stroke="none"></rect><text xml:space="preserve" transform="translate(27 95) scale(1) translate(956.1221524699366 458.4448782497094) translate(-19.09188309203678 -59.09188309203678) translate(0 0) translate(-35.669921875 0)" x="7" y="9.78564453125" font-family="sans-serif" font-size="10" font-weight="normal" text-anchor="undefined" fill="#ffffff">Craft</text><rect transform="translate(27 95) scale(1) translate(956.1221524699366 458.4448782497094) translate(-19.09188309203678 -59.09188309203678) translate(0 16) translate(-62.2509765625 0)" x="0" y="0" width="62.2509765625" height="24" rx="0" ry="0" fill="white" stroke="none"></rect><text xml:space="preserve" transform="translate(27 95) scale(1) translate(956.1221524699366 458.4448782497094) translate(-19.09188309203678 -59.09188309203678) translate(0 16) translate(-62.2509765625 0)" x="30.5712890625" y="8.78564453125" font-family="sans-serif" font-size="10" font-weight="normal" text-anchor="end" fill="#000000">id:</text><text xml:space="preserve" transform="translate(27 95) scale(1) translate(956.1221524699366 458.4448782497094) translate(-19.09188309203678 -59.09188309203678) translate(0 16) translate(-62.2509765625 0)" x="33.349609375" y="8.78564453125" font-family="sans-serif" font-size="10" font-weight="normal" text-anchor="start" fill="#000000">ID</text><text xml:space="preserve" transform="translate(27 95) scale(1) translate(956.1221524699366 458.4448782497094) translate(-19.09188309203678 -59.09188309203678) translate(0 16) translate(-62.2509765625 0)" x="30.5712890625" y="20.78564453125" font-family="sans-serif" font-size="10" font-weight="normal" text-anchor="end" fill="#000000">name:</text><text xml:space="preserve" transform="translate(27 95) scale(1) translate(956.1221524699366 458.4448782497094) translate(-19.09188309203678 -59.09188309203678) translate(0 16) translate(-62.2509765625 0)" x="33.349609375" y="20.78564453125" font-family="sans-serif" font-size="10" font-weight="normal" text-anchor="start" fill="#000000">String</text><circle transform="translate(27 95) scale(1)" cx="1207.4287662443462" cy="458.4448782497094" r="26" fill="#653294" stroke="#4d4d4d" strokewidth="2"></circle><rect transform="translate(27 95) scale(1) translate(1207.4287662443462 458.4448782497094) translate(19.091883092036785 19.09188309203678) translate(0 0) translate(0 0)" x="0" y="0" width="60.1376953125" height="14" rx="7" ry="7" fill="#4C8EDA" stroke="none"></rect><text xml:space="preserve" transform="translate(27 95) scale(1) translate(1207.4287662443462 458.4448782497094) translate(19.091883092036785 19.09188309203678) translate(0 0) translate(0 0)" x="7" y="9.78564453125" font-family="sans-serif" font-size="10" font-weight="normal" text-anchor="undefined" fill="#ffffff">Procedure</text><rect transform="translate(27 95) scale(1) translate(1207.4287662443462 458.4448782497094) translate(19.091883092036785 19.09188309203678) translate(0 16) translate(0 0)" x="0" y="0" width="66.142578125" height="36" rx="0" ry="0" fill="white" stroke="none"></rect><text xml:space="preserve" transform="translate(27 95) scale(1) translate(1207.4287662443462 458.4448782497094) translate(19.091883092036785 19.09188309203678) translate(0 16) translate(0 0)" x="34.462890625" y="8.78564453125" font-family="sans-serif" font-size="10" font-weight="normal" text-anchor="end" fill="#000000">id:</text><text xml:space="preserve" transform="translate(27 95) scale(1) translate(1207.4287662443462 458.4448782497094) translate(19.091883092036785 19.09188309203678) translate(0 16) translate(0 0)" x="37.2412109375" y="8.78564453125" font-family="sans-serif" font-size="10" font-weight="normal" text-anchor="start" fill="#000000">ID</text><text xml:space="preserve" transform="translate(27 95) scale(1) translate(1207.4287662443462 458.4448782497094) translate(19.091883092036785 19.09188309203678) translate(0 16) translate(0 0)" x="34.462890625" y="20.78564453125" font-family="sans-serif" font-size="10" font-weight="normal" text-anchor="end" fill="#000000">name:</text><text xml:space="preserve" transform="translate(27 95) scale(1) translate(1207.4287662443462 458.4448782497094) translate(19.091883092036785 19.09188309203678) translate(0 16) translate(0 0)" x="37.2412109375" y="20.78564453125" font-family="sans-serif" font-size="10" font-weight="normal" text-anchor="start" fill="#000000">String</text><text xml:space="preserve" transform="translate(27 95) scale(1) translate(1207.4287662443462 458.4448782497094) translate(19.091883092036785 19.09188309203678) translate(0 16) translate(0 0)" x="34.462890625" y="32.78564453125" font-family="sans-serif" font-size="10" font-weight="normal" text-anchor="end" fill="#000000">details:</text><text xml:space="preserve" transform="translate(27 95) scale(1) translate(1207.4287662443462 458.4448782497094) translate(19.091883092036785 19.09188309203678) translate(0 16) translate(0 0)" x="37.2412109375" y="32.78564453125" font-family="sans-serif" font-size="10" font-weight="normal" text-anchor="start" fill="#000000">List</text><circle transform="translate(27 95) scale(1)" cx="1541.641919085549" cy="149.5588269602626" r="26" fill="#68bc00" stroke="#4d4d4d" strokewidth="2"></circle><rect transform="translate(27 95) scale(1) translate(1541.641919085549 149.5588269602626) translate(19.091883092036785 19.09188309203678) translate(0 0) translate(0 0)" x="0" y="0" width="59.576171875" height="14" rx="7" ry="7" fill="#4C8EDA" stroke="none"></rect><text xml:space="preserve" transform="translate(27 95) scale(1) translate(1541.641919085549 149.5588269602626) translate(19.091883092036785 19.09188309203678) translate(0 0) translate(0 0)" x="7" y="9.78564453125" font-family="sans-serif" font-size="10" font-weight="normal" text-anchor="undefined" fill="#ffffff">SaleOrder</text><rect transform="translate(27 95) scale(1) translate(1541.641919085549 149.5588269602626) translate(19.091883092036785 19.09188309203678) translate(0 16) translate(0 0)" x="0" y="0" width="113.0126953125" height="36" rx="0" ry="0" fill="white" stroke="none"></rect><text xml:space="preserve" transform="translate(27 95) scale(1) translate(1541.641919085549 149.5588269602626) translate(19.091883092036785 19.09188309203678) translate(0 16) translate(0 0)" x="64.4775390625" y="8.78564453125" font-family="sans-serif" font-size="10" font-weight="normal" text-anchor="end" fill="#000000">deadline:</text><text xml:space="preserve" transform="translate(27 95) scale(1) translate(1541.641919085549 149.5588269602626) translate(19.091883092036785 19.09188309203678) translate(0 16) translate(0 0)" x="67.255859375" y="8.78564453125" font-family="sans-serif" font-size="10" font-weight="normal" text-anchor="start" fill="#000000">DateTime</text><text xml:space="preserve" transform="translate(27 95) scale(1) translate(1541.641919085549 149.5588269602626) translate(19.091883092036785 19.09188309203678) translate(0 16) translate(0 0)" x="64.4775390625" y="20.78564453125" font-family="sans-serif" font-size="10" font-weight="normal" text-anchor="end" fill="#000000">id:</text><text xml:space="preserve" transform="translate(27 95) scale(1) translate(1541.641919085549 149.5588269602626) translate(19.091883092036785 19.09188309203678) translate(0 16) translate(0 0)" x="67.255859375" y="20.78564453125" font-family="sans-serif" font-size="10" font-weight="normal" text-anchor="start" fill="#000000">ID</text><text xml:space="preserve" transform="translate(27 95) scale(1) translate(1541.641919085549 149.5588269602626) translate(19.091883092036785 19.09188309203678) translate(0 16) translate(0 0)" x="64.4775390625" y="32.78564453125" font-family="sans-serif" font-size="10" font-weight="normal" text-anchor="end" fill="#000000">is_completed:</text><text xml:space="preserve" transform="translate(27 95) scale(1) translate(1541.641919085549 149.5588269602626) translate(19.091883092036785 19.09188309203678) translate(0 16) translate(0 0)" x="67.255859375" y="32.78564453125" font-family="sans-serif" font-size="10" font-weight="normal" text-anchor="start" fill="#000000">Bool</text><circle transform="translate(27 95) scale(1)" cx="956.1221524699366" cy="264.80279888974803" r="26" fill="#68bc00" stroke="#4d4d4d" strokewidth="2"></circle><rect transform="translate(27 95) scale(1) translate(956.1221524699366 264.80279888974803) translate(1.6532731788489269e-15 -79) translate(0 0) translate(-31.35791015625 0)" x="0" y="0" width="62.7158203125" height="14" rx="7" ry="7" fill="#4C8EDA" stroke="none"></rect><text xml:space="preserve" transform="translate(27 95) scale(1) translate(956.1221524699366 264.80279888974803) translate(1.6532731788489269e-15 -79) translate(0 0) translate(-31.35791015625 0)" x="7" y="9.78564453125" font-family="sans-serif" font-size="10" font-weight="normal" text-anchor="undefined" fill="#ffffff">WorkOrder</text><rect transform="translate(27 95) scale(1) translate(956.1221524699366 264.80279888974803) translate(1.6532731788489269e-15 -79) translate(0 16) translate(-59.57275390625 0)" x="0" y="0" width="119.1455078125" height="36" rx="0" ry="0" fill="white" stroke="none"></rect><text xml:space="preserve" transform="translate(27 95) scale(1) translate(956.1221524699366 264.80279888974803) translate(1.6532731788489269e-15 -79) translate(0 16) translate(-59.57275390625 0)" x="70.6103515625" y="8.78564453125" font-family="sans-serif" font-size="10" font-weight="normal" text-anchor="end" fill="#000000">schedule_date:</text><text xml:space="preserve" transform="translate(27 95) scale(1) translate(956.1221524699366 264.80279888974803) translate(1.6532731788489269e-15 -79) translate(0 16) translate(-59.57275390625 0)" x="73.388671875" y="8.78564453125" font-family="sans-serif" font-size="10" font-weight="normal" text-anchor="start" fill="#000000">DateTime</text><text xml:space="preserve" transform="translate(27 95) scale(1) translate(956.1221524699366 264.80279888974803) translate(1.6532731788489269e-15 -79) translate(0 16) translate(-59.57275390625 0)" x="70.6103515625" y="20.78564453125" font-family="sans-serif" font-size="10" font-weight="normal" text-anchor="end" fill="#000000">is_completed:</text><text xml:space="preserve" transform="translate(27 95) scale(1) translate(956.1221524699366 264.80279888974803) translate(1.6532731788489269e-15 -79) translate(0 16) translate(-59.57275390625 0)" x="73.388671875" y="20.78564453125" font-family="sans-serif" font-size="10" font-weight="normal" text-anchor="start" fill="#000000">Bool</text><text xml:space="preserve" transform="translate(27 95) scale(1) translate(956.1221524699366 264.80279888974803) translate(1.6532731788489269e-15 -79) translate(0 16) translate(-59.57275390625 0)" x="70.6103515625" y="32.78564453125" font-family="sans-serif" font-size="10" font-weight="normal" text-anchor="end" fill="#000000">id:</text><text xml:space="preserve" transform="translate(27 95) scale(1) translate(956.1221524699366 264.80279888974803) translate(1.6532731788489269e-15 -79) translate(0 16) translate(-59.57275390625 0)" x="73.388671875" y="32.78564453125" font-family="sans-serif" font-size="10" font-weight="normal" text-anchor="start" fill="#000000">ID</text><circle transform="translate(27 95) scale(1)" cx="1541.641919085549" cy="-4" r="26" fill="#4C8EDA" stroke="#4d4d4d" strokewidth="2"></circle><rect transform="translate(27 95) scale(1) translate(1541.641919085549 -4) translate(19.091883092036785 -59.09188309203678) translate(0 0) translate(0 0)" x="0" y="0" width="57.3447265625" height="14" rx="7" ry="7" fill="#4C8EDA" stroke="none"></rect><text xml:space="preserve" transform="translate(27 95) scale(1) translate(1541.641919085549 -4) translate(19.091883092036785 -59.09188309203678) translate(0 0) translate(0 0)" x="7" y="9.78564453125" font-family="sans-serif" font-size="10" font-weight="normal" text-anchor="undefined" fill="#ffffff">Customer</text><rect transform="translate(27 95) scale(1) translate(1541.641919085549 -4) translate(19.091883092036785 -59.09188309203678) translate(0 16) translate(0 0)" x="0" y="0" width="62.2509765625" height="24" rx="0" ry="0" fill="white" stroke="none"></rect><text xml:space="preserve" transform="translate(27 95) scale(1) translate(1541.641919085549 -4) translate(19.091883092036785 -59.09188309203678) translate(0 16) translate(0 0)" x="30.5712890625" y="8.78564453125" font-family="sans-serif" font-size="10" font-weight="normal" text-anchor="end" fill="#000000">id:</text><text xml:space="preserve" transform="translate(27 95) scale(1) translate(1541.641919085549 -4) translate(19.091883092036785 -59.09188309203678) translate(0 16) translate(0 0)" x="33.349609375" y="8.78564453125" font-family="sans-serif" font-size="10" font-weight="normal" text-anchor="start" fill="#000000">ID</text><text xml:space="preserve" transform="translate(27 95) scale(1) translate(1541.641919085549 -4) translate(19.091883092036785 -59.09188309203678) translate(0 16) translate(0 0)" x="30.5712890625" y="20.78564453125" font-family="sans-serif" font-size="10" font-weight="normal" text-anchor="end" fill="#000000">name:</text><text xml:space="preserve" transform="translate(27 95) scale(1) translate(1541.641919085549 -4) translate(19.091883092036785 -59.09188309203678) translate(0 16) translate(0 0)" x="33.349609375" y="20.78564453125" font-family="sans-serif" font-size="10" font-weight="normal" text-anchor="start" fill="#000000">String</text><circle transform="translate(27 95) scale(1)" cx="600.2943510183305" cy="149.5588269602626" r="26" fill="#68bc00" stroke="#4d4d4d" strokewidth="2"></circle><rect transform="translate(27 95) scale(1) translate(600.2943510183305 149.5588269602626) translate(1.6532731788489269e-15 -67) translate(0 0) translate(-29.7880859375 0)" x="0" y="0" width="59.576171875" height="14" rx="7" ry="7" fill="#4C8EDA" stroke="none"></rect><text xml:space="preserve" transform="translate(27 95) scale(1) translate(600.2943510183305 149.5588269602626) translate(1.6532731788489269e-15 -67) translate(0 0) translate(-29.7880859375 0)" x="7" y="9.78564453125" font-family="sans-serif" font-size="10" font-weight="normal" text-anchor="undefined" fill="#ffffff">ShipOrder</text><rect transform="translate(27 95) scale(1) translate(600.2943510183305 149.5588269602626) translate(1.6532731788489269e-15 -67) translate(0 16) translate(-43.4423828125 0)" x="0" y="0" width="86.884765625" height="24" rx="0" ry="0" fill="white" stroke="none"></rect><text xml:space="preserve" transform="translate(27 95) scale(1) translate(600.2943510183305 149.5588269602626) translate(1.6532731788489269e-15 -67) translate(0 16) translate(-43.4423828125 0)" x="38.349609375" y="8.78564453125" font-family="sans-serif" font-size="10" font-weight="normal" text-anchor="end" fill="#000000">id:</text><text xml:space="preserve" transform="translate(27 95) scale(1) translate(600.2943510183305 149.5588269602626) translate(1.6532731788489269e-15 -67) translate(0 16) translate(-43.4423828125 0)" x="41.1279296875" y="8.78564453125" font-family="sans-serif" font-size="10" font-weight="normal" text-anchor="start" fill="#000000">ID</text><text xml:space="preserve" transform="translate(27 95) scale(1) translate(600.2943510183305 149.5588269602626) translate(1.6532731788489269e-15 -67) translate(0 16) translate(-43.4423828125 0)" x="38.349609375" y="20.78564453125" font-family="sans-serif" font-size="10" font-weight="normal" text-anchor="end" fill="#000000">at_time:</text><text xml:space="preserve" transform="translate(27 95) scale(1) translate(600.2943510183305 149.5588269602626) translate(1.6532731788489269e-15 -67) translate(0 16) translate(-43.4423828125 0)" x="41.1279296875" y="20.78564453125" font-family="sans-serif" font-size="10" font-weight="normal" text-anchor="start" fill="#000000">DateTime</text><circle transform="translate(27 95) scale(1)" cx="1207.4287662443462" cy="264.80279888974803" r="26" fill="#68bc00" stroke="#4d4d4d" strokewidth="2"></circle><rect transform="translate(27 95) scale(1) translate(1207.4287662443462 264.80279888974803) translate(27 -20) translate(0 0) translate(0 0)" x="0" y="0" width="80.69921875" height="14" rx="7" ry="7" fill="#4C8EDA" stroke="none"></rect><text xml:space="preserve" transform="translate(27 95) scale(1) translate(1207.4287662443462 264.80279888974803) translate(27 -20) translate(0 0) translate(0 0)" x="7" y="9.78564453125" font-family="sans-serif" font-size="10" font-weight="normal" text-anchor="undefined" fill="#ffffff">ProcedureTask</text><rect transform="translate(27 95) scale(1) translate(1207.4287662443462 264.80279888974803) translate(27 -20) translate(0 16) translate(0 0)" x="0" y="0" width="90.048828125" height="24" rx="0" ry="0" fill="white" stroke="none"></rect><text xml:space="preserve" transform="translate(27 95) scale(1) translate(1207.4287662443462 264.80279888974803) translate(27 -20) translate(0 16) translate(0 0)" x="64.4775390625" y="8.78564453125" font-family="sans-serif" font-size="10" font-weight="normal" text-anchor="end" fill="#000000">is_completed:</text><text xml:space="preserve" transform="translate(27 95) scale(1) translate(1207.4287662443462 264.80279888974803) translate(27 -20) translate(0 16) translate(0 0)" x="67.255859375" y="8.78564453125" font-family="sans-serif" font-size="10" font-weight="normal" text-anchor="start" fill="#000000">Bool</text><text xml:space="preserve" transform="translate(27 95) scale(1) translate(1207.4287662443462 264.80279888974803) translate(27 -20) translate(0 16) translate(0 0)" x="64.4775390625" y="20.78564453125" font-family="sans-serif" font-size="10" font-weight="normal" text-anchor="end" fill="#000000">id:</text><text xml:space="preserve" transform="translate(27 95) scale(1) translate(1207.4287662443462 264.80279888974803) translate(27 -20) translate(0 16) translate(0 0)" x="67.255859375" y="20.78564453125" font-family="sans-serif" font-size="10" font-weight="normal" text-anchor="start" fill="#000000">ID</text><circle transform="translate(27 95) scale(1)" cx="506.2494295041664" cy="356.1453535433506" r="26" fill="#fcc400" stroke="#4d4d4d" strokewidth="2"></circle><rect transform="translate(27 95) scale(1) translate(506.2494295041664 356.1453535433506) translate(-27 -19.999999999999996) translate(0 0) translate(-64.771484375 0)" x="0" y="0" width="64.771484375" height="14" rx="7" ry="7" fill="#4C8EDA" stroke="none"></rect><text xml:space="preserve" transform="translate(27 95) scale(1) translate(506.2494295041664 356.1453535433506) translate(-27 -19.999999999999996) translate(0 0) translate(-64.771484375 0)" x="7" y="9.78564453125" font-family="sans-serif" font-size="10" font-weight="normal" text-anchor="undefined" fill="#ffffff">Warehouse</text><rect transform="translate(27 95) scale(1) translate(506.2494295041664 356.1453535433506) translate(-27 -19.999999999999996) translate(0 16) translate(-62.2509765625 0)" x="0" y="0" width="62.2509765625" height="24" rx="0" ry="0" fill="white" stroke="none"></rect><text xml:space="preserve" transform="translate(27 95) scale(1) translate(506.2494295041664 356.1453535433506) translate(-27 -19.999999999999996) translate(0 16) translate(-62.2509765625 0)" x="30.5712890625" y="8.78564453125" font-family="sans-serif" font-size="10" font-weight="normal" text-anchor="end" fill="#000000">id:</text><text xml:space="preserve" transform="translate(27 95) scale(1) translate(506.2494295041664 356.1453535433506) translate(-27 -19.999999999999996) translate(0 16) translate(-62.2509765625 0)" x="33.349609375" y="8.78564453125" font-family="sans-serif" font-size="10" font-weight="normal" text-anchor="start" fill="#000000">ID</text><text xml:space="preserve" transform="translate(27 95) scale(1) translate(506.2494295041664 356.1453535433506) translate(-27 -19.999999999999996) translate(0 16) translate(-62.2509765625 0)" x="30.5712890625" y="20.78564453125" font-family="sans-serif" font-size="10" font-weight="normal" text-anchor="end" fill="#000000">name:</text><text xml:space="preserve" transform="translate(27 95) scale(1) translate(506.2494295041664 356.1453535433506) translate(-27 -19.999999999999996) translate(0 16) translate(-62.2509765625 0)" x="33.349609375" y="20.78564453125" font-family="sans-serif" font-size="10" font-weight="normal" text-anchor="start" fill="#000000">String</text><circle transform="translate(27 95) scale(1)" cx="1207.4287662443462" cy="-4" r="26" fill="#4C8EDA" stroke="#4d4d4d" strokewidth="2"></circle><rect transform="translate(27 95) scale(1) translate(1207.4287662443462 -4) translate(1.6532731788489269e-15 -91) translate(0 0) translate(-17.556640625 0)" x="0" y="0" width="35.11328125" height="14" rx="7" ry="7" fill="#4C8EDA" stroke="none"></rect><text xml:space="preserve" transform="translate(27 95) scale(1) translate(1207.4287662443462 -4) translate(1.6532731788489269e-15 -91) translate(0 0) translate(-17.556640625 0)" x="7" y="9.78564453125" font-family="sans-serif" font-size="10" font-weight="normal" text-anchor="undefined" fill="#ffffff">User</text><rect transform="translate(27 95) scale(1) translate(1207.4287662443462 -4) translate(1.6532731788489269e-15 -91) translate(0 16) translate(-43.9111328125 0)" x="0" y="0" width="87.822265625" height="48" rx="0" ry="0" fill="white" stroke="none"></rect><text xml:space="preserve" transform="translate(27 95) scale(1) translate(1207.4287662443462 -4) translate(1.6532731788489269e-15 -91) translate(0 16) translate(-43.9111328125 0)" x="56.142578125" y="8.78564453125" font-family="sans-serif" font-size="10" font-weight="normal" text-anchor="end" fill="#000000">id:</text><text xml:space="preserve" transform="translate(27 95) scale(1) translate(1207.4287662443462 -4) translate(1.6532731788489269e-15 -91) translate(0 16) translate(-43.9111328125 0)" x="58.9208984375" y="8.78564453125" font-family="sans-serif" font-size="10" font-weight="normal" text-anchor="start" fill="#000000">ID</text><text xml:space="preserve" transform="translate(27 95) scale(1) translate(1207.4287662443462 -4) translate(1.6532731788489269e-15 -91) translate(0 16) translate(-43.9111328125 0)" x="56.142578125" y="20.78564453125" font-family="sans-serif" font-size="10" font-weight="normal" text-anchor="end" fill="#000000">name:</text><text xml:space="preserve" transform="translate(27 95) scale(1) translate(1207.4287662443462 -4) translate(1.6532731788489269e-15 -91) translate(0 16) translate(-43.9111328125 0)" x="58.9208984375" y="20.78564453125" font-family="sans-serif" font-size="10" font-weight="normal" text-anchor="start" fill="#000000">String</text><text xml:space="preserve" transform="translate(27 95) scale(1) translate(1207.4287662443462 -4) translate(1.6532731788489269e-15 -91) translate(0 16) translate(-43.9111328125 0)" x="56.142578125" y="32.78564453125" font-family="sans-serif" font-size="10" font-weight="normal" text-anchor="end" fill="#000000">department:</text><text xml:space="preserve" transform="translate(27 95) scale(1) translate(1207.4287662443462 -4) translate(1.6532731788489269e-15 -91) translate(0 16) translate(-43.9111328125 0)" x="58.9208984375" y="32.78564453125" font-family="sans-serif" font-size="10" font-weight="normal" text-anchor="start" fill="#000000">String</text><text xml:space="preserve" transform="translate(27 95) scale(1) translate(1207.4287662443462 -4) translate(1.6532731788489269e-15 -91) translate(0 16) translate(-43.9111328125 0)" x="56.142578125" y="44.78564453125" font-family="sans-serif" font-size="10" font-weight="normal" text-anchor="end" fill="#000000">role:</text><text xml:space="preserve" transform="translate(27 95) scale(1) translate(1207.4287662443462 -4) translate(1.6532731788489269e-15 -91) translate(0 16) translate(-43.9111328125 0)" x="58.9208984375" y="44.78564453125" font-family="sans-serif" font-size="10" font-weight="normal" text-anchor="start" fill="#000000">String</text><circle transform="translate(27 95) scale(1)" cx="694.3392725324946" cy="356.1453535433506" r="26" fill="#fcc400" stroke="#4d4d4d" strokewidth="2"></circle><rect transform="translate(27 95) scale(1) translate(694.3392725324946 356.1453535433506) translate(27 -20) translate(0 0) translate(0 0)" x="0" y="0" width="32.88671875" height="14" rx="7" ry="7" fill="#4C8EDA" stroke="none"></rect><text xml:space="preserve" transform="translate(27 95) scale(1) translate(694.3392725324946 356.1453535433506) translate(27 -20) translate(0 0) translate(0 0)" x="7" y="9.78564453125" font-family="sans-serif" font-size="10" font-weight="normal" text-anchor="undefined" fill="#ffffff">WIP</text><rect transform="translate(27 95) scale(1) translate(694.3392725324946 356.1453535433506) translate(27 -20) translate(0 16) translate(0 0)" x="0" y="0" width="62.2509765625" height="24" rx="0" ry="0" fill="white" stroke="none"></rect><text xml:space="preserve" transform="translate(27 95) scale(1) translate(694.3392725324946 356.1453535433506) translate(27 -20) translate(0 16) translate(0 0)" x="30.5712890625" y="8.78564453125" font-family="sans-serif" font-size="10" font-weight="normal" text-anchor="end" fill="#000000">id:</text><text xml:space="preserve" transform="translate(27 95) scale(1) translate(694.3392725324946 356.1453535433506) translate(27 -20) translate(0 16) translate(0 0)" x="33.349609375" y="8.78564453125" font-family="sans-serif" font-size="10" font-weight="normal" text-anchor="start" fill="#000000">ID</text><text xml:space="preserve" transform="translate(27 95) scale(1) translate(694.3392725324946 356.1453535433506) translate(27 -20) translate(0 16) translate(0 0)" x="30.5712890625" y="20.78564453125" font-family="sans-serif" font-size="10" font-weight="normal" text-anchor="end" fill="#000000">name:</text><text xml:space="preserve" transform="translate(27 95) scale(1) translate(694.3392725324946 356.1453535433506) translate(27 -20) translate(0 16) translate(0 0)" x="33.349609375" y="20.78564453125" font-family="sans-serif" font-size="10" font-weight="normal" text-anchor="start" fill="#000000">String</text><circle transform="translate(27 95) scale(1)" cx="129" cy="-4" r="26" fill="#4C8EDA" stroke="#4d4d4d" strokewidth="2"></circle><rect transform="translate(27 95) scale(1) translate(129 -4) translate(-19.09188309203678 -59.09188309203678) translate(0 0) translate(-50.689453125 0)" x="0" y="0" width="50.689453125" height="14" rx="7" ry="7" fill="#4C8EDA" stroke="none"></rect><text xml:space="preserve" transform="translate(27 95) scale(1) translate(129 -4) translate(-19.09188309203678 -59.09188309203678) translate(0 0) translate(-50.689453125 0)" x="7" y="9.78564453125" font-family="sans-serif" font-size="10" font-weight="normal" text-anchor="undefined" fill="#ffffff">Supplier</text><rect transform="translate(27 95) scale(1) translate(129 -4) translate(-19.09188309203678 -59.09188309203678) translate(0 16) translate(-62.2509765625 0)" x="0" y="0" width="62.2509765625" height="24" rx="0" ry="0" fill="white" stroke="none"></rect><text xml:space="preserve" transform="translate(27 95) scale(1) translate(129 -4) translate(-19.09188309203678 -59.09188309203678) translate(0 16) translate(-62.2509765625 0)" x="30.5712890625" y="8.78564453125" font-family="sans-serif" font-size="10" font-weight="normal" text-anchor="end" fill="#000000">id:</text><text xml:space="preserve" transform="translate(27 95) scale(1) translate(129 -4) translate(-19.09188309203678 -59.09188309203678) translate(0 16) translate(-62.2509765625 0)" x="33.349609375" y="8.78564453125" font-family="sans-serif" font-size="10" font-weight="normal" text-anchor="start" fill="#000000">ID</text><text xml:space="preserve" transform="translate(27 95) scale(1) translate(129 -4) translate(-19.09188309203678 -59.09188309203678) translate(0 16) translate(-62.2509765625 0)" x="30.5712890625" y="20.78564453125" font-family="sans-serif" font-size="10" font-weight="normal" text-anchor="end" fill="#000000">name:</text><text xml:space="preserve" transform="translate(27 95) scale(1) translate(129 -4) translate(-19.09188309203678 -59.09188309203678) translate(0 16) translate(-62.2509765625 0)" x="33.349609375" y="20.78564453125" font-family="sans-serif" font-size="10" font-weight="normal" text-anchor="start" fill="#000000">String</text><circle transform="translate(27 95) scale(1)" cx="129" cy="149.5588269602626" r="26" fill="#68bc00" stroke="#4d4d4d" strokewidth="2"></circle><rect transform="translate(27 95) scale(1) translate(129 149.5588269602626) translate(-19.09188309203678 19.091883092036785) translate(0 0) translate(-81.8076171875 0)" x="0" y="0" width="81.8076171875" height="14" rx="7" ry="7" fill="#4C8EDA" stroke="none"></rect><text xml:space="preserve" transform="translate(27 95) scale(1) translate(129 149.5588269602626) translate(-19.09188309203678 19.091883092036785) translate(0 0) translate(-81.8076171875 0)" x="7" y="9.78564453125" font-family="sans-serif" font-size="10" font-weight="normal" text-anchor="undefined" fill="#ffffff">PurchaseOrder</text><rect transform="translate(27 95) scale(1) translate(129 149.5588269602626) translate(-19.09188309203678 19.091883092036785) translate(0 16) translate(-113.0126953125 0)" x="0" y="0" width="113.0126953125" height="36" rx="0" ry="0" fill="white" stroke="none"></rect><text xml:space="preserve" transform="translate(27 95) scale(1) translate(129 149.5588269602626) translate(-19.09188309203678 19.091883092036785) translate(0 16) translate(-113.0126953125 0)" x="64.4775390625" y="8.78564453125" font-family="sans-serif" font-size="10" font-weight="normal" text-anchor="end" fill="#000000">id:</text><text xml:space="preserve" transform="translate(27 95) scale(1) translate(129 149.5588269602626) translate(-19.09188309203678 19.091883092036785) translate(0 16) translate(-113.0126953125 0)" x="67.255859375" y="8.78564453125" font-family="sans-serif" font-size="10" font-weight="normal" text-anchor="start" fill="#000000">ID</text><text xml:space="preserve" transform="translate(27 95) scale(1) translate(129 149.5588269602626) translate(-19.09188309203678 19.091883092036785) translate(0 16) translate(-113.0126953125 0)" x="64.4775390625" y="20.78564453125" font-family="sans-serif" font-size="10" font-weight="normal" text-anchor="end" fill="#000000">is_completed:</text><text xml:space="preserve" transform="translate(27 95) scale(1) translate(129 149.5588269602626) translate(-19.09188309203678 19.091883092036785) translate(0 16) translate(-113.0126953125 0)" x="67.255859375" y="20.78564453125" font-family="sans-serif" font-size="10" font-weight="normal" text-anchor="start" fill="#000000">Bool</text><text xml:space="preserve" transform="translate(27 95) scale(1) translate(129 149.5588269602626) translate(-19.09188309203678 19.091883092036785) translate(0 16) translate(-113.0126953125 0)" x="64.4775390625" y="32.78564453125" font-family="sans-serif" font-size="10" font-weight="normal" text-anchor="end" fill="#000000">deadline:</text><text xml:space="preserve" transform="translate(27 95) scale(1) translate(129 149.5588269602626) translate(-19.09188309203678 19.091883092036785) translate(0 16) translate(-113.0126953125 0)" x="67.255859375" y="32.78564453125" font-family="sans-serif" font-size="10" font-weight="normal" text-anchor="start" fill="#000000">DateTime</text></svg>